<svg xmlns="http://www.w3.org/2000/svg" width="35" height="28.87" viewBox="0 0 35 28.87"><defs><style>.a{fill:#e6e6e6;}.b{fill:#ffd464;}.c{fill:#263740;}.d{fill:#f5f5f5;}.e{fill:#fff;}.f{fill:#cc584c;}</style></defs><path class="a" d="M31.83,3.5H3.39A3.38,3.38,0,0,0,0,6.78V25.59a3.37,3.37,0,0,0,3.39,3.28H31.83A3.18,3.18,0,0,0,35,25.59V6.78A3.19,3.19,0,0,0,31.83,3.5Zm0,0"/><path class="b" d="M31.83,4.37H3.39A3.38,3.38,0,0,0,0,7.66v2H35v-2a3.19,3.19,0,0,0-3.17-3.29Zm0,0"/><path class="c" d="M31.83,3.5H3.39A3.38,3.38,0,0,0,0,6.78v2H35v-2A3.19,3.19,0,0,0,31.83,3.5Zm0,0"/><path class="d" d="M6.56,7A1.31,1.31,0,0,1,5.25,5.69V1.31a1.31,1.31,0,0,1,2.62,0V5.69A1.31,1.31,0,0,1,6.56,7Zm0,0"/><path class="d" d="M28.44,7a1.32,1.32,0,0,1-1.32-1.31V1.31a1.32,1.32,0,0,1,2.63,0V5.69A1.31,1.31,0,0,1,28.44,7Zm0,0"/><rect class="e" x="3.06" y="11.81" width="2.62" height="2.62"/><rect class="e" x="7.44" y="11.81" width="2.62" height="2.62"/><rect class="e" x="11.81" y="11.81" width="2.62" height="2.62"/><rect class="e" x="16.19" y="11.81" width="2.62" height="2.62"/><rect class="e" x="20.56" y="11.81" width="2.62" height="2.62"/><rect class="e" x="24.94" y="11.81" width="2.62" height="2.62"/><rect class="f" x="29.31" y="11.81" width="2.62" height="2.62"/><rect class="e" x="3.06" y="15.75" width="2.62" height="2.63"/><rect class="e" x="7.44" y="15.75" width="2.62" height="2.63"/><rect class="e" x="11.81" y="15.75" width="2.62" height="2.63"/><rect class="e" x="16.19" y="15.75" width="2.62" height="2.63"/><rect class="e" x="20.56" y="15.75" width="2.62" height="2.63"/><rect class="e" x="24.94" y="15.75" width="2.62" height="2.63"/><rect class="f" x="29.31" y="15.75" width="2.62" height="2.63"/><rect class="e" x="3.06" y="20.12" width="2.62" height="2.63"/><rect class="e" x="7.44" y="20.12" width="2.62" height="2.63"/><rect class="e" x="11.81" y="20.12" width="2.62" height="2.63"/><rect class="e" x="16.19" y="20.12" width="2.62" height="2.63"/><rect class="e" x="20.56" y="20.12" width="2.62" height="2.63"/><rect class="e" x="24.94" y="20.12" width="2.62" height="2.63"/><rect class="f" x="29.31" y="20.12" width="2.62" height="2.63"/><rect class="e" x="3.06" y="24.5" width="2.62" height="2.63"/><rect class="e" x="7.44" y="24.5" width="2.62" height="2.63"/><rect class="e" x="11.81" y="24.5" width="2.62" height="2.63"/><rect class="e" x="16.19" y="24.5" width="2.62" height="2.63"/><rect class="e" x="20.56" y="24.5" width="2.62" height="2.63"/><rect class="e" x="24.94" y="24.5" width="2.62" height="2.63"/><rect class="f" x="29.31" y="24.5" width="2.62" height="2.63"/></svg>