<svg xmlns="http://www.w3.org/2000/svg" xmlns:xlink="http://www.w3.org/1999/xlink" width="76.37" height="110" viewBox="0 0 76.37 110"><defs><linearGradient id="a" x1="510.09" y1="69.92" x2="556.03" y2="69.92" gradientTransform="translate(-515.4)" gradientUnits="userSpaceOnUse"><stop offset="0.29" stop-color="#eaeaf9"/><stop offset="0.39" stop-color="#e3e3f7"/><stop offset="0.53" stop-color="#d0d0f2"/><stop offset="0.63" stop-color="#bebeed"/></linearGradient><linearGradient id="b" x1="0.02" y1="45.61" x2="44.32" y2="45.61" gradientUnits="userSpaceOnUse"><stop offset="0" stop-color="#7f98f4"/><stop offset="1" stop-color="#9313db"/></linearGradient><linearGradient id="c" x1="8.07" y1="35.28" x2="31.91" y2="35.28" gradientUnits="userSpaceOnUse"><stop offset="0" stop-color="#ffd33f"/><stop offset="1" stop-color="#ff7364"/></linearGradient><linearGradient id="d" x1="10.68" y1="72.28" x2="11.23" y2="55.78" gradientUnits="userSpaceOnUse"><stop offset="0" stop-color="#9313db"/><stop offset="1" stop-color="#7f98f4"/></linearGradient><linearGradient id="e" x1="10.94" y1="83.85" x2="10.94" y2="55.08" xlink:href="#c"/><linearGradient id="f" x1="30.47" y1="70.11" x2="78.88" y2="70.11" gradientTransform="translate(-2.52)" xlink:href="#a"/><linearGradient id="g" x1="27.98" y1="30.31" x2="76.27" y2="30.31" xlink:href="#b"/><linearGradient id="h" x1="35.21" y1="18.56" x2="59.05" y2="18.56" xlink:href="#c"/><linearGradient id="i" x1="39.49" y1="52.62" x2="39.77" y2="44.09" xlink:href="#d"/><linearGradient id="j" x1="39.59" y1="83.85" x2="39.59" y2="55.08" xlink:href="#c"/></defs><path d="M53.68,76.76,32.34,64.52a6.89,6.89,0,0,0-6.82,0L4.69,76.41v7.51L22.22,94.21H32.55L53.74,81.3A2.63,2.63,0,0,0,53.68,76.76Z" style="fill:#0c25ba;opacity:0.43"/><path d="M0,45.67V81.24a1.58,1.58,0,0,0,.79,1.38l18.65,10.8a5.53,5.53,0,0,0,5.51,0L43.54,82.66a1.54,1.54,0,0,0,.76-1.42c.11,0,.11-35.43.11-35.43Z" style="fill:url(#a)"/><path d="M19.46,57.78.82,47a1.59,1.59,0,0,1,0-2.75L19.57,33.37a5,5,0,0,1,5,0l19,11a1.54,1.54,0,0,1,0,2.66L25,57.78A5.53,5.53,0,0,1,19.46,57.78Z" style="fill:url(#b)"/><path d="M30.74,47.4a10.86,10.86,0,0,0,1.17-5.22c0-7.58-5.34-16.81-11.92-20.62A11.39,11.39,0,0,0,15.18,20a6.48,6.48,0,0,0-3.08.5l5.16-2.79c2.17-1.39,5.25-1.28,8.67.7,6.58,3.81,11.92,13,11.92,20.61,0,3.56-1.19,6.1-3.11,7.42l-.35.23-5.95,3.22A6.31,6.31,0,0,0,30.74,47.4Z" style="fill:#ffd33f"/><path d="M12.1,20.45a6.48,6.48,0,0,1,3.08-.5A11.39,11.39,0,0,1,20,21.56c6.58,3.81,11.92,13,11.92,20.62a10.86,10.86,0,0,1-1.17,5.22,6.31,6.31,0,0,1-2.3,2.44C26.28,51.09,23.29,50.9,20,49,13.41,45.18,8.07,36,8.07,28.38,8.07,24.29,9.64,21.53,12.1,20.45Z" style="fill:url(#c)"/><polygon points="19.41 26.02 14.88 32.41 19.22 44.05 23.82 37.71 19.41 26.02" style="fill:#ffd33f"/><path d="M12.61,59.08a4.06,4.06,0,0,0-1.67-3.23c-.92-.53-1.68,0-1.68,1.27V70.05l3.35,1.82Z" style="fill:url(#d)"/><path d="M9.26,70.05v8.63a4,4,0,0,0,1.68,3.22c.92.54,1.67,0,1.67-1.27V71.87Z" style="fill:url(#e)"/><path d="M76.37,30.21H28V95.92a1.74,1.74,0,0,0,.86,1.51l20.33,11.76a6,6,0,0,0,6,0L75.42,97.46a1.65,1.65,0,0,0,.82-1.54C76.37,95.92,76.37,30.21,76.37,30.21Z" style="fill:url(#f)"/><path d="M49.18,43.57,28.85,31.81a1.74,1.74,0,0,1,0-3L49.29,17a5.44,5.44,0,0,1,5.46,0L75.44,29a1.67,1.67,0,0,1,0,2.89L55.18,43.57A6,6,0,0,1,49.18,43.57Z" style="fill:url(#g)"/><path d="M57.88,30.67a10.84,10.84,0,0,0,1.17-5.22c0-7.57-5.34-16.8-11.92-20.61a11.25,11.25,0,0,0-4.81-1.61,6.42,6.42,0,0,0-3.07.49L44.4.94c2.17-1.4,5.25-1.29,8.67.69C59.65,5.44,65,14.67,65,22.25c0,3.55-1.19,6.09-3.11,7.41l-.34.24-6,3.21A6.17,6.17,0,0,0,57.88,30.67Z" style="fill:#ffd33f"/><path d="M39.25,3.72a6.42,6.42,0,0,1,3.07-.49,11.25,11.25,0,0,1,4.81,1.61c6.58,3.81,11.92,13,11.92,20.61a10.84,10.84,0,0,1-1.17,5.22,6.17,6.17,0,0,1-2.3,2.44c-2.16,1.25-5.15,1.07-8.45-.85-6.58-3.81-11.92-13-11.92-20.61C35.21,7.56,36.78,4.8,39.25,3.72Z" style="fill:url(#h)"/><path d="M51.28,21.67a6.47,6.47,0,0,0-1.63-2.11A1.55,1.55,0,0,0,51,19.21a2.38,2.38,0,0,0,.54-1.7,5.36,5.36,0,0,0-1.19-3.34,10.1,10.1,0,0,0-1.87-1.8V10.53l-1.3-.76v1.7l-.51-.31-1.12-.66V8.81l-1.31-.76V9.74L42.46,8.67l-.09,14,1.81,1.06v1.66l1.3.77V24.46l1.63,1s0,1.68,0,1.68l1.3.76,0-1.79a3.27,3.27,0,0,0,2.06.25c.84-.25,1.26-1,1.27-2.27A5.61,5.61,0,0,0,51.28,21.67Zm-5.55-8.21.93.54c1,.61,1.54,1.3,1.54,2.08,0,.44-.14.7-.4.77a1.53,1.53,0,0,1-1.09-.31l-1-.58Zm1.11,8.87-1.16-.68,0-2.93,1.09.64A3.57,3.57,0,0,1,48,20.43a2.29,2.29,0,0,1,.41,1.32C48.38,22.74,47.86,22.93,46.84,22.33Z" style="fill:#ffd33f"/><path d="M41.26,48.25A4.05,4.05,0,0,0,39.59,45c-.92-.53-1.68,0-1.68,1.27v4.94l3.35,2Z" style="fill:url(#i)"/><path d="M37.91,51.25V93.68a4,4,0,0,0,1.68,3.2c.92.53,1.67,0,1.67-1.27V53.2Z" style="fill:url(#j)"/></svg>