<svg xmlns="http://www.w3.org/2000/svg" xmlns:xlink="http://www.w3.org/1999/xlink" width="35" height="37.25" viewBox="0 0 35 37.25"><defs><style>.a{fill:none;}.b{clip-path:url(#a);}.c{fill:#e7eced;}.d{fill:#424a60;}.e{fill:#a4e869;}.f{fill:#262b35;}</style><clipPath id="a"><rect class="a" width="35" height="37.25"/></clipPath></defs><g class="b"><path class="c" d="M7.49,2.71a2.15,2.15,0,0,1,.34-1.15L1.58,3.24A2.12,2.12,0,0,0,.07,5.84L7.44,33.33s0,0,0,0Zm0,0"/><path class="c" d="M27.45,2.08A2.12,2.12,0,0,0,27.11.94l6.25,1.67a2.13,2.13,0,0,1,1.51,2.6L27.5,32.71s-.05,0-.05,0Zm0,0"/></g><path class="d" d="M25.33,36.5H9.61a2.12,2.12,0,0,1-2.12-2.13V2.44A2.12,2.12,0,0,1,9.61.31H25.33a2.12,2.12,0,0,1,2.12,2.13V34.37a2.12,2.12,0,0,1-2.12,2.13Zm0,0"/><rect class="e" x="7.49" y="4.06" width="19.96" height="24.96"/><path class="f" d="M19.34,32.76a1.87,1.87,0,1,1-1.87-1.88,1.87,1.87,0,0,1,1.87,1.88Zm0,0"/><path class="f" d="M17.47,2.81H15a.63.63,0,0,1,0-1.25h2.5a.63.63,0,0,1,0,1.25Zm0,0"/><path class="f" d="M20,2.81h-.63a.63.63,0,0,1,0-1.25H20a.63.63,0,0,1,0,1.25Zm0,0"/></svg>