<svg xmlns="http://www.w3.org/2000/svg" xmlns:xlink="http://www.w3.org/1999/xlink" viewBox="0 0 49.96 44"><defs><linearGradient id="a" x1="31.35" y1="44" x2="31.35" y2="26.49" gradientUnits="userSpaceOnUse"><stop offset="0" stop-color="#f58639"/><stop offset="1" stop-color="#fbc49c"/></linearGradient><linearGradient id="b" x1="5.83" x2="5.83" y2="30.62" xlink:href="#a"/><linearGradient id="c" x1="18.63" x2="18.63" y2="22.88" xlink:href="#a"/><linearGradient id="d" x1="44.13" x2="44.13" y2="16.16" xlink:href="#a"/><linearGradient id="e" x1="23.11" y1="20.85" x2="23.11" y2="0" xlink:href="#a"/></defs><rect x="25.54" y="26.49" width="11.62" height="17.51" style="fill:url(#a)"/><rect y="30.62" width="11.67" height="13.38" style="fill:url(#b)"/><rect x="12.79" y="22.88" width="11.67" height="21.12" style="fill:url(#c)"/><rect x="38.29" y="16.16" width="11.67" height="27.84" style="fill:url(#d)"/><path d="M45.29,1.19,43.1,7.84A.91.91,0,0,1,42,8.42a.9.9,0,0,1-.58-1.14l1.25-3.8L30.06,12.82a.91.91,0,0,1-.53.18h-.08a.84.84,0,0,1-.49-.08L19.14,8.15,2.33,20.67a.9.9,0,0,1-.54.18.88.88,0,0,1-.72-.36.93.93,0,0,1-.18-.68.92.92,0,0,1,.36-.59L18.62,6.3l.16-.07a.65.65,0,0,1,.18,0h.15a.81.81,0,0,1,.21,0l.11,0,9.93,4.81L41.56,2l-4,.31a.94.94,0,0,1-1-.84.9.9,0,0,1,.83-1l7-.53a1,1,0,0,1,.78.35A.9.9,0,0,1,45.29,1.19Z" style="fill:url(#e)"/></svg>