<svg xmlns="http://www.w3.org/2000/svg" viewBox="0 0 105.38 105" width="105"><defs><style>.a{fill:#7c9be4;}.b{fill:#e0eff9;}.c{fill:#fff;}.d{fill:#f7d33f;}.e{fill:#61139f;}.f{fill:#fa9638;}.g{fill:#5530b4;}.h{fill:none;stroke:#f7d33f;stroke-miterlimit:10;}.i{fill:#5530b3;}.j{fill:#5725a4;opacity:0.1;}</style></defs><title>icon-ecommerce</title><path class="a" d="M6.84,63.74S-.84,57.61.08,39,1.51,17.42,21.19,11,57.94-9.17,73.71,15.47c13,16.55,18,22.73,22.47,26.18,7.11,5.49,20.83,29.26-19.65,47.07Z"/><rect class="b" x="28.37" y="56.87" width="10.59" height="31.38"/><rect class="c" x="7.09" y="56.87" width="11.07" height="31.38"/><rect class="c" x="20.07" y="56.87" width="6.4" height="31.38"/><rect class="d" x="66.15" y="31.36" width="1.54" height="3.66"/><polygon class="d" points="57.23 22.85 57.23 35.02 55.09 35.02 55.09 25.38 57.23 22.85"/><rect class="d" x="85.69" y="31.36" width="1.74" height="3.66"/><polygon class="d" points="86.23 29.34 81.36 29.34 81.36 27.68 84.57 27.68 86.23 29.34"/><polygon class="d" points="79.74 25.64 79.74 35.02 77.61 35.02 77.61 22.97 78.78 24.44 79.74 25.64"/><polygon class="c" points="75.98 27.68 75.98 29.34 67.55 29.34 69.22 27.68 75.98 27.68"/><rect class="c" x="58.86" y="21.3" width="17.12" height="2.2"/><polygon class="c" points="87.69 36.64 85.49 54.09 45.05 94.53 37.52 94.53 44.74 36.64 87.69 36.64"/><path class="e" d="M96.85,35h-7.8V29.86l-3.81-3.8H81.36v-1l-.51-.63-3.8-4.76H57.79l-4.32,5.11V35h-9.2a1.08,1.08,0,0,0-1.08,1L35.85,94.83A1.18,1.18,0,0,0,37,96.15h67.19a1.17,1.17,0,0,0,1.16-1.32L97.93,36A1.09,1.09,0,0,0,96.85,35Zm-3,1.62h2.54L103.5,92.9l-9.65-9.65Zm-12.49-9h3.21l1.66,1.67H81.36Zm6.07,3.69V35H85.69V31.36Zm-6.07,0h2.56V35H81.36ZM77.61,23l1.17,1.47,1,1.2V35H77.61ZM58.86,21.3H76v2.2H58.86Zm0,3.83H76v.93H68.55l-4,4v5H58.86Zm8.69,4.21,1.67-1.67H76v1.67Zm8.43,2V35H69.46V31.36Zm-8.29,0V35H66.15V31.36Zm-12.6-6,2.14-2.53V35H55.09ZM37.53,94.53l7.21-57.89H87.69L80.38,94.53Zm51.8-57.89H92V83.25L82.22,93Zm-6,57.89L92.9,85l9.55,9.55Z"/><polygon class="f" points="91.96 36.64 91.96 83.25 82.22 93 89.33 36.64 91.96 36.64"/><polygon class="d" points="103.5 92.9 93.85 83.25 93.85 36.64 96.39 36.64 103.5 92.9"/><polygon class="g" points="102.45 94.53 83.36 94.53 92.91 84.98 102.45 94.53"/><polygon class="b" points="85.49 54.09 80.38 94.53 45.05 94.53 85.49 54.09"/><rect class="c" x="28.37" y="56.87" width="10.59" height="31.38"/><path class="b" d="M51.11,42.9v14h-.55V88.7a1.17,1.17,0,0,1-1.18,1.17H6.65A1.17,1.17,0,0,1,5.47,88.7V81.63L20.07,67l6.39-6.4,1.91-1.9,3.47-3.47h7v-7l2-2,1.71-1.71,1.61-1.62Z"/><rect class="c" x="40.87" y="56.87" width="8.08" height="31.38"/><rect class="a" x="40.87" y="56.87" width="8.08" height="31.38"/><path class="g" d="M44.06,42.9H28.9l0-.25a7.71,7.71,0,0,1,5.23-6.09,7.44,7.44,0,0,1,2.31-.36A7.68,7.68,0,0,1,44,42.65Z"/><path class="d" d="M42.42,42.9H30.54a6,6,0,0,1,3.63-4.62,5.92,5.92,0,0,1,2.31-.46h.06A6,6,0,0,1,42.42,42.9Z"/><path class="g" d="M39.45,42.9H25.9a7.6,7.6,0,0,0-.8-2.59,7.7,7.7,0,0,1,6.77-4.11,7.33,7.33,0,0,1,2.3.36,7.51,7.51,0,0,1,2.37,1.26,7.62,7.62,0,0,1,2.87,4.83Z"/><path class="d" d="M37.81,42.9H25.93a6,6,0,0,1,5.87-5.08h.07a5.9,5.9,0,0,1,2.3.46A6,6,0,0,1,37.81,42.9Z"/><path class="g" d="M16.88,32.18a.79.79,0,0,1-.46.15.81.81,0,0,1-.67-.35l-3.44-4.92a.81.81,0,0,1,1.33-.93l3.44,4.93A.81.81,0,0,1,16.88,32.18Z"/><path class="g" d="M24.87,30.68a.81.81,0,0,1-.81-.81V23.24a.81.81,0,0,1,1.62,0v6.63A.81.81,0,0,1,24.87,30.68Z"/><path class="g" d="M33,32.53a.77.77,0,0,1-.45-.14.81.81,0,0,1-.22-1.12L36,25.94a.81.81,0,1,1,1.33.91l-3.62,5.33A.8.8,0,0,1,33,32.53Z"/><path class="g" d="M47.36,5.7A6.55,6.55,0,0,0,46,5.86a6.59,6.59,0,1,0,0,12.87,6.59,6.59,0,1,0,1.41-13ZM46,17.06a5.13,5.13,0,0,1-1.42.2,4.89,4.89,0,0,1-1.88-.37,5,5,0,0,1,0-9.2,4.89,4.89,0,0,1,1.88-.37A4.78,4.78,0,0,1,46,7.53a5,5,0,0,1,0,9.53Zm3.29-.17a6.57,6.57,0,0,0,0-9.2,5,5,0,0,1,0,9.2Z"/><path class="d" d="M49.5,12.29A5,5,0,0,1,46,17.06a5.13,5.13,0,0,1-1.42.2,4.89,4.89,0,0,1-1.88-.37,5,5,0,0,1,0-9.2,4.89,4.89,0,0,1,1.88-.37A4.78,4.78,0,0,1,46,7.53,5,5,0,0,1,49.5,12.29Z"/><path class="d" d="M52.33,12.29a5,5,0,0,1-3.09,4.6,6.57,6.57,0,0,0,0-9.2A5,5,0,0,1,52.33,12.29Z"/><path class="g" d="M81.82,0A6.06,6.06,0,0,0,80.4.16,6.06,6.06,0,0,0,79,0,6.59,6.59,0,1,0,80.4,13,6.59,6.59,0,1,0,81.82,0ZM80.4,11.35a4.78,4.78,0,0,1-1.42.21A5,5,0,0,1,77.1,2,4.92,4.92,0,0,1,79,1.62a4.78,4.78,0,0,1,1.42.21,5,5,0,0,1,0,9.52Zm3.3-.16a6.59,6.59,0,0,0,0-9.2,5,5,0,0,1,0,9.2Z"/><path class="d" d="M84,6.59a5,5,0,0,1-3.55,4.76,4.78,4.78,0,0,1-1.42.21A5,5,0,0,1,77.1,2,4.92,4.92,0,0,1,79,1.62a4.78,4.78,0,0,1,1.42.21A5,5,0,0,1,84,6.59Z"/><path class="d" d="M86.79,6.59a5,5,0,0,1-3.09,4.6,6.59,6.59,0,0,0,0-9.2A5,5,0,0,1,86.79,6.59Z"/><polygon class="h" points="66.19 85.57 65.64 90.25 42.97 90.25 42.97 85.57 66.19 85.57"/><ellipse class="i" cx="26.46" cy="98.41" rx="20.3" ry="1.58"/><ellipse class="i" cx="66.92" cy="103.36" rx="34.81" ry="1.64"/><path class="e" d="M41.35,84v7.92H67.08L68,84Zm24.29,6.3H43V85.57H66.19Z"/><polygon class="d" points="66.19 85.57 65.64 90.25 42.97 90.25 42.97 85.57 66.19 85.57"/><rect class="e" x="47.54" y="76.49" width="18.38" height="1.57" rx="0.78" ry="0.78"/><rect class="e" x="41.35" y="79.5" width="18.38" height="1.57" rx="0.78" ry="0.78"/><polygon class="j" points="38.88 48.22 38.88 55.26 31.84 55.26 38.88 48.22"/><path class="d" d="M24.27,42.9H12.38a6,6,0,0,1,11.89,0Z"/><rect class="d" x="18.16" y="44.52" width="6.31" height="10.73"/><rect class="g" x="40.87" y="44.52" width="10.47" height="10.73"/><path class="e" d="M52.27,42.9H25.9a7.63,7.63,0,0,0-15.15,0H4.47a.69.69,0,0,0-.69.69v12.6a.68.68,0,0,0,.69.68h1V88.7a1.17,1.17,0,0,0,1.18,1.17H49.38a1.17,1.17,0,0,0,1.18-1.17V56.87h1.71a.68.68,0,0,0,.69-.68V43.59A.69.69,0,0,0,52.27,42.9ZM26.46,44.52H38.88V55.26H26.46Zm-8.14-6.71a6,6,0,0,1,5.94,5.09H12.38A6,6,0,0,1,18.32,37.81Zm6.16,6.71V55.26H18.16V44.52ZM5.4,55.26V44.52H16.17V55.26Zm12.76,33H7.09V56.87H18.16Zm8.3,0H20.07V56.87h6.39Zm12.5,0H28.37V56.87H39Zm10,0H40.87V56.87h8.07Zm2.4-33H40.87V44.52H51.34Z"/><rect class="a" x="40.87" y="56.87" width="8.08" height="31.38"/></svg>