<svg xmlns="http://www.w3.org/2000/svg" width="30" height="30" viewBox="0 0 30 30">
  <g fill="none">
    <circle cx="15" cy="15" r="15" fill="#F7931A"/>
    <path fill="#FFF" d="M21.7396875,13.14375 C22.0340625,11.17875 20.536875,10.1221875 18.49125,9.4171875 L19.155,6.7546875 L17.535,6.3515625 L16.888125,8.94375 C16.4625,8.836875 16.025625,8.7375 15.5896875,8.638125 L16.24125,6.0290625 L14.62125,5.625 L13.9575,8.2865625 C13.605,8.2059375 13.258125,8.1271875 12.9225,8.0428125 L12.924375,8.034375 L10.689375,7.4765625 L10.258125,9.2071875 C10.258125,9.2071875 11.4609375,9.4828125 11.435625,9.4996875 C12.091875,9.66375 12.21,10.0978125 12.1903125,10.4428125 L11.4346875,13.475625 C11.4796875,13.486875 11.5378125,13.50375 11.6034375,13.5290625 L11.431875,13.486875 L10.3725,17.735625 C10.291875,17.934375 10.0884375,18.2334375 9.6290625,18.12 C9.6459375,18.1434375 8.4515625,17.8265625 8.4515625,17.8265625 L7.6471875,19.6809375 L9.7565625,20.206875 C10.1484375,20.3053125 10.5328125,20.4084375 10.910625,20.505 L10.2403125,23.1975 L11.859375,23.600625 L12.523125,20.938125 C12.965625,21.0571875 13.395,21.1678125 13.815,21.2728125 L13.153125,23.9240625 L14.773125,24.3271875 L15.4434375,21.6403125 C18.2071875,22.1634375 20.2846875,21.9525 21.159375,19.453125 C21.864375,17.44125 21.1246875,16.2796875 19.670625,15.523125 C20.73,15.279375 21.526875,14.5828125 21.7396875,13.14375 Z M18.0365625,18.335625 C17.536875,20.3484375 14.1478125,19.26 13.0490625,18.9871875 L13.9396875,15.42 C15.0384375,15.6946875 18.560625,16.2375 18.0365625,18.335625 Z M18.538125,13.1146875 C18.0815625,14.945625 15.2615625,14.0146875 14.3475,13.786875 L15.15375,10.5525 C16.0678125,10.7803125 19.014375,11.205 18.538125,13.1146875 Z"/>
  </g>
</svg>
