<svg xmlns="http://www.w3.org/2000/svg" xmlns:xlink="http://www.w3.org/1999/xlink" width="121.85" height="110" viewBox="0 0 121.85 110"><defs><linearGradient id="a" x1="0.01" y1="70.74" x2="121.85" y2="70.74" gradientUnits="userSpaceOnUse"><stop offset="0" stop-color="#f3f3fa"/><stop offset="0.19" stop-color="#fff"/><stop offset="0.45" stop-color="#f3f3fa"/><stop offset="0.52" stop-color="#dbdef8"/><stop offset="0.79" stop-color="#f5f5fd"/><stop offset="1" stop-color="#dbdef8"/></linearGradient><linearGradient id="b" y1="66.66" x2="121.85" y2="66.66" gradientUnits="userSpaceOnUse"><stop offset="0.44" stop-color="#dbdef8"/><stop offset="0.53" stop-color="#f8f8fd"/></linearGradient><linearGradient id="c" x1="9.18" y1="68.29" x2="112.67" y2="68.29" gradientUnits="userSpaceOnUse"><stop offset="0" stop-color="#9313db"/><stop offset="1" stop-color="#7f98f4"/></linearGradient><linearGradient id="d" x1="13.2" y1="89.9" x2="36.06" y2="89.9" gradientUnits="userSpaceOnUse"><stop offset="0" stop-color="#264eee"/><stop offset="1" stop-color="#7f98f4"/></linearGradient><linearGradient id="e" x1="18.17" y1="79.42" x2="30.48" y2="100.74" gradientUnits="userSpaceOnUse"><stop offset="0" stop-color="#dbdef8"/><stop offset="0.22" stop-color="#fff"/><stop offset="1" stop-color="#fff"/></linearGradient><linearGradient id="f" x1="-1829.12" y1="89.9" x2="-1806.27" y2="89.9" gradientTransform="matrix(-1, 0, 0, 1, -1720.7, 0)" xlink:href="#d"/><linearGradient id="g" x1="-1824.15" y1="79.42" x2="-1811.84" y2="100.74" gradientTransform="matrix(-1, 0, 0, 1, -1720.7, 0)" xlink:href="#e"/><linearGradient id="h" x1="16.16" y1="59.31" x2="105.69" y2="59.31" xlink:href="#a"/><linearGradient id="i" x1="105.69" y1="58.5" x2="16.16" y2="58.5" xlink:href="#c"/><linearGradient id="j" x1="16.16" y1="42.99" x2="105.69" y2="42.99" xlink:href="#a"/><linearGradient id="k" x1="105.69" y1="42.17" x2="16.16" y2="42.17" xlink:href="#c"/><linearGradient id="l" x1="16.16" y1="26.66" x2="105.69" y2="26.66" xlink:href="#a"/><linearGradient id="m" x1="105.69" y1="25.85" x2="16.16" y2="25.85" xlink:href="#c"/></defs><g style="isolation:isolate"><path d="M121.85,66.66h0c0-3-1.92-5.93-5.83-8.19L75.11,34.85c-7.79-4.49-20.43-4.48-28.24,0l-41,23.68C1.91,60.83,0,63.83,0,66.82v7.92c-.06,3,1.88,6,5.82,8.27l40.91,23.62c7.79,4.49,20.43,4.48,28.24,0l41-23.68c3.88-2.24,5.83-5.17,5.86-8.11h0Z" style="fill:url(#a)"/><path d="M5.83,82.07l40.91,23.62c7.79,4.5,20.43,4.49,28.24,0L116,82c4-2.29,5.9-5.3,5.85-8.29v.94c0,3-1.89,6-5.85,8.29L75,106.61c-7.81,4.51-20.45,4.52-28.24,0L5.83,83C1.88,80.73,0,77.73,0,74.74v-.95C0,76.79,1.88,79.79,5.83,82.07Z" style="mix-blend-mode:overlay"/><path d="M5.83,74.77,46.74,98.39c7.79,4.49,20.43,4.49,28.24,0l41-23.68c4-2.29,5.9-5.29,5.85-8.29v.95c0,3-1.89,6-5.85,8.29L75,99.31c-7.81,4.51-20.45,4.52-28.24,0L5.83,75.71C1.88,73.43,0,70.43,0,67.43v-.94C0,69.48,1.88,72.49,5.83,74.77Z" style="fill:#fff"/><path d="M116,78.47,75,102.14c-7.81,4.51-20.45,4.51-28.24,0L5.83,78.54C1.88,76.26,0,73.26,0,70.26v.68H0C0,74,1.88,77,5.83,79.23l40.91,23.62c7.79,4.5,20.43,4.49,28.24,0l41-23.67c4-2.29,5.9-5.3,5.85-8.3h0v-.68C121.89,73.17,120,76.18,116,78.47Z" style="mix-blend-mode:overlay"/><path d="M5.83,79.23l40.91,23.62c7.79,4.5,20.43,4.49,28.24,0l41-23.67c4-2.29,5.9-5.3,5.85-8.3v1c0,3-1.89,6-5.85,8.29L75,103.77c-7.81,4.51-20.45,4.52-28.24,0L5.83,80.18C1.88,77.89,0,74.89,0,71.9V71C0,74,1.88,77,5.83,79.23Z" style="fill:#fff"/><path d="M5.83,74.85c-7.79-4.5-7.77-11.8,0-16.3l41-23.68c7.81-4.5,20.45-4.51,28.24,0L116,58.47c7.79,4.5,7.78,11.8,0,16.31L75,98.45c-7.81,4.51-20.45,4.52-28.24,0Z" style="fill:url(#b)"/><path d="M14.14,75.25c-6.62-3.82-6.61-10,0-13.85L49,41.3c6.63-3.83,17.37-3.84,24,0l34.74,20.06c6.62,3.82,6.61,10,0,13.85L72.86,95.29c-6.63,3.83-17.37,3.84-24,0Z" style="fill:url(#c)"/><path d="M13.2,83.3A4.73,4.73,0,0,0,15.35,87L33.91,97.74c1.18.68,2.15.13,2.15-1.24h0a4.77,4.77,0,0,0-2.15-3.72L15.35,82.07c-1.19-.69-2.15-.13-2.15,1.23Z" style="fill:url(#d)"/><path d="M35.74,96.69,17.19,86A4.75,4.75,0,0,1,15,82.26a3,3,0,0,1,0-.32c-1.05-.45-1.86.11-1.86,1.36A4.73,4.73,0,0,0,15.35,87L33.91,97.74c1.08.62,2,.2,2.12-.92A1.85,1.85,0,0,1,35.74,96.69Z" style="fill:url(#e)"/><path d="M108.43,83.3A4.74,4.74,0,0,1,106.27,87L87.72,97.74c-1.19.68-2.15.13-2.15-1.24h0a4.75,4.75,0,0,1,2.15-3.72l18.56-10.71c1.18-.69,2.15-.13,2.15,1.23Z" style="fill:url(#f)"/><path d="M85.88,96.69,104.44,86a4.75,4.75,0,0,0,2.15-3.72,2.91,2.91,0,0,0,0-.32c1-.45,1.87.11,1.87,1.36A4.74,4.74,0,0,1,106.27,87L87.72,97.74c-1.09.62-2,.2-2.12-.92A2.28,2.28,0,0,0,85.88,96.69Z" style="fill:url(#g)"/><path d="M116,58.47,90.61,43.8a15.82,15.82,0,0,0-2.46,1.14l-4.42,2.55,24,13.85c6.62,3.82,6.61,10,0,13.85L83.6,89.09h7.59L116,74.78C123.8,70.27,123.81,63,116,58.47Z" style="fill:#dbdef8;opacity:0.6000000000000001;mix-blend-mode:multiply"/><path d="M107.71,61.34l-24-13.85L58,62.33c-5.74,3.31-5.75,8.68,0,12L83.6,89.09l24.09-13.9C114.32,71.36,114.33,65.16,107.71,61.34Z" style="fill:#dbdef8;mix-blend-mode:multiply"/><path d="M105.69,58.5h0c0-2.18-1.41-4.36-4.28-6L71.35,35.13c-5.72-3.31-15-3.3-20.75,0L20.47,52.54c-2.86,1.64-4.29,3.8-4.31,6h0v0h0v1.6h0c0,2.18,1.41,4.36,4.28,6L50.5,83.5c5.73,3.31,15,3.3,20.76,0l30.12-17.4c2.86-1.64,4.29-3.8,4.31-6h0Z" style="fill:url(#h)"/><path d="M20.44,64.52c-5.72-3.31-5.71-8.67,0-12L50.6,35.14c5.74-3.31,15-3.32,20.75,0l30.06,17.35c5.72,3.31,5.71,8.67,0,12L71.26,81.86c-5.74,3.31-15,3.32-20.76,0Z" style="fill:url(#i)"/><path d="M101.41,52.48,77.31,38.57l-24.19,14c-5.73,3.31-5.75,8.67,0,12L77.19,78.43l24.19-14C107.12,61.15,107.13,55.79,101.41,52.48Z" style="fill:#dbdef8;mix-blend-mode:multiply"/><path d="M105.69,42.17h0c0-2.18-1.41-4.36-4.28-6L71.35,18.8c-5.72-3.3-15-3.3-20.75,0L20.47,36.21c-2.86,1.65-4.29,3.8-4.31,6h0v0h0v1.61h0c0,2.17,1.41,4.35,4.28,6L50.5,67.18c5.73,3.3,15,3.3,20.76,0l30.12-17.39c2.86-1.65,4.29-3.81,4.31-6h0Z" style="fill:url(#j)"/><path d="M20.44,48.19c-5.72-3.3-5.71-8.67,0-12L50.6,18.82c5.74-3.32,15-3.32,20.75,0l30.06,17.36c5.72,3.3,5.71,8.66,0,12L71.26,65.53c-5.74,3.31-15,3.32-20.76,0Z" style="fill:url(#k)"/><path d="M101.41,36.16,77.31,22.24l-24.19,14c-5.73,3.31-5.75,8.68,0,12L77.19,62.1l24.19-14C107.12,44.82,107.13,39.46,101.41,36.16Z" style="fill:#dbdef8;mix-blend-mode:multiply"/><path d="M105.69,25.85h0c0-2.18-1.41-4.36-4.28-6L71.35,2.47c-5.72-3.3-15-3.29-20.75,0L20.47,19.88c-2.86,1.65-4.29,3.81-4.31,6h0v0h0v1.6h0c0,2.18,1.41,4.36,4.28,6L50.5,50.85c5.73,3.31,15,3.3,20.76,0l30.12-17.4c2.86-1.65,4.29-3.8,4.31-6h0Z" style="fill:url(#l)"/><path d="M20.44,31.86c-5.72-3.3-5.71-8.67,0-12L50.6,2.49c5.74-3.31,15-3.32,20.75,0l30.06,17.36c5.72,3.3,5.71,8.67,0,12L71.26,49.2c-5.74,3.32-15,3.32-20.76,0Z" style="fill:url(#m)"/></g></svg>