<svg xmlns="http://www.w3.org/2000/svg" width="35" height="29.03" viewBox="0 0 35 29.03"><defs><style>.a{fill:#5d6d7e;}.b{fill:#283a4d;}.c{fill:#34495e;}.d{fill:#fff;}.e{fill:#e1effa;}</style></defs><path class="a" d="M34.33,28a1,1,0,0,1-1,1H1.68a1,1,0,0,1-1-1V10.4a1,1,0,0,1,1-1H33.32a1,1,0,0,1,1,1V28Z"/><path class="b" d="M1.68,28.52a.5.5,0,0,1-.5-.5V10.4a.51.51,0,0,1,.5-.5H33.32a.5.5,0,0,1,.5.5V28a.5.5,0,0,1-.5.5Z"/><path class="a" d="M35,15.4a1,1,0,0,1-1,1H1a1,1,0,0,1-1-1V4.79a1,1,0,0,1,1-1H34a1,1,0,0,1,1,1Z"/><path class="c" d="M1,15.9a.5.5,0,0,1-.5-.5V4.79a.5.5,0,0,1,.5-.5H34a.5.5,0,0,1,.5.5V15.4a.5.5,0,0,1-.5.5Z"/><path class="d" d="M11.91,14a.21.21,0,0,0-.16-.07H9.31a.2.2,0,0,0-.16.07.22.22,0,0,0-.06.15v4.62a.2.2,0,0,0,.06.14l.07.06h2.61l.08-.06a.2.2,0,0,0,.06-.14V14.1A.22.22,0,0,0,11.91,14Zm-.5,4.22H9.65v-.68h1.76Z"/><path class="e" d="M9.09,16.41v2.31a.2.2,0,0,0,.06.14h0l.07.05h2.61l.08-.05h0a.2.2,0,0,0,.06-.14V16.41Zm2.32,1.76H9.65v-.68h1.76Z"/><path class="d" d="M25.85,14a.19.19,0,0,0-.15-.07H23.25a.21.21,0,0,0-.16.07.28.28,0,0,0-.06.15v4.62a.2.2,0,0,0,.06.14l.08.06h2.61l.07-.06a.2.2,0,0,0,.06-.14V14.1A.22.22,0,0,0,25.85,14Zm-.5,4.22H23.59v-.68h1.76Z"/><path class="e" d="M23,16.41v2.31a.2.2,0,0,0,.06.14h0l.08.05h2.61l.07-.05h0a.2.2,0,0,0,.06-.14V16.41Zm2.32,1.76H23.59v-.68h1.76Z"/><path class="c" d="M23.31,3.78H21.79V2.44a.91.91,0,0,0-.27-.66,1,1,0,0,0-.65-.27H14.13a.92.92,0,0,0-.92.93V3.78H11.69V2.44A2.46,2.46,0,0,1,12.41.71,2.41,2.41,0,0,1,14.13,0h6.74a2.41,2.41,0,0,1,1.72.71,2.46,2.46,0,0,1,.72,1.73V3.78Z"/></svg>