<svg xmlns="http://www.w3.org/2000/svg" xmlns:xlink="http://www.w3.org/1999/xlink" viewBox="0 0 37.3 44"><defs><linearGradient id="a" x1="0.38" y1="34.22" x2="35.49" y2="6.3" gradientUnits="userSpaceOnUse"><stop offset="0" stop-color="#326af1"/><stop offset="1" stop-color="#4f94fb"/></linearGradient></defs><path d="M18.65,44l-.23,0A22,22,0,0,1,0,22.24V7.17A1.43,1.43,0,0,1,1.43,5.74c6.79,0,11.48-2.2,16.43-5.5a1.44,1.44,0,0,1,1.59,0c4.95,3.3,9.64,5.5,16.42,5.5A1.43,1.43,0,0,1,37.3,7.17V22.24A22,22,0,0,1,18.89,44Z" style="fill:url(#a)"/><path d="M18.65,34.43A12.91,12.91,0,1,1,31.57,21.52,12.92,12.92,0,0,1,18.65,34.43Z" style="fill:#2c49bf"/><path d="M21.8,25.26a5.26,5.26,0,1,0-6.3,0,12.89,12.89,0,0,0-6.88,4.39,12.91,12.91,0,0,0,20.06,0A12.86,12.86,0,0,0,21.8,25.26Z" style="fill:#e6f3ff"/></svg>