<svg xmlns="http://www.w3.org/2000/svg" xmlns:xlink="http://www.w3.org/1999/xlink" width="105.93" height="110" viewBox="0 0 105.93 110"><defs><filter id="b" x="37.05" y="-8598.88" width="37.09" height="32766" filterUnits="userSpaceOnUse" color-interpolation-filters="sRGB"><feFlood flood-color="#fff" result="bg"/><feBlend in="SourceGraphic" in2="bg"/></filter><mask id="a" x="37.05" y="-8598.88" width="37.09" height="32766" maskUnits="userSpaceOnUse"><g style="filter:url(#b)"/></mask><linearGradient id="c" x1="-769.51" y1="-265.34" x2="-769.51" y2="-280.45" gradientTransform="matrix(-0.92, -0.54, -0.48, 0.8, -783.38, -166.76)" gradientUnits="userSpaceOnUse"><stop offset="0"/><stop offset="1" stop-color="#fff"/></linearGradient><linearGradient id="d" x1="0.01" y1="75.87" x2="105.93" y2="75.87" gradientUnits="userSpaceOnUse"><stop offset="0" stop-color="#f3f3fa"/><stop offset="0.19" stop-color="#fff"/><stop offset="0.45" stop-color="#f3f3fa"/><stop offset="0.52" stop-color="#dbdef8"/><stop offset="0.79" stop-color="#f5f5fd"/><stop offset="1" stop-color="#dbdef8"/></linearGradient><linearGradient id="e" y1="72.32" x2="105.93" y2="72.32" gradientUnits="userSpaceOnUse"><stop offset="0" stop-color="#f3f3fa"/><stop offset="1" stop-color="#dbdef8"/></linearGradient><linearGradient id="f" x1="75.88" y1="14.8" x2="46.23" y2="66.16" gradientUnits="userSpaceOnUse"><stop offset="0" stop-color="#f3f3fa"/><stop offset="0.04" stop-color="#fff"/><stop offset="0.45" stop-color="#f3f3fa"/><stop offset="0.65" stop-color="#dbdef8"/><stop offset="0.96" stop-color="#f5f5fd"/><stop offset="1" stop-color="#dbdef8"/></linearGradient><linearGradient id="g" x1="87.57" y1="63.14" x2="77.85" y2="79.97" gradientUnits="userSpaceOnUse"><stop offset="0.29" stop-color="#eaeaf9"/><stop offset="0.39" stop-color="#e3e3f7"/><stop offset="0.53" stop-color="#d0d0f2"/><stop offset="0.63" stop-color="#bebeed"/></linearGradient><linearGradient id="h" x1="73.87" y1="55.44" x2="97.55" y2="55.44" xlink:href="#g"/><linearGradient id="i" x1="69.16" y1="14.27" x2="48.99" y2="49.2" gradientUnits="userSpaceOnUse"><stop offset="0" stop-color="#9313db"/><stop offset="1" stop-color="#7f98f4"/></linearGradient><filter id="k" x="37.05" y="16.1" width="37.09" height="31.87" filterUnits="userSpaceOnUse" color-interpolation-filters="sRGB"><feFlood flood-color="#fff" result="bg"/><feBlend in="SourceGraphic" in2="bg"/></filter><mask id="j" x="37.05" y="16.1" width="37.09" height="31.87" maskUnits="userSpaceOnUse"><g style="mask:url(#a);filter:url(#k)"><path d="M74.14,42.41,71.5,36a2.83,2.83,0,0,0-2.7-1.58l-2.69.3A4.74,4.74,0,0,1,61.47,32l-2.95-7.11a2.82,2.82,0,0,0-2.69-1.58l-4.9.55a4.87,4.87,0,0,1-4.64-2.73l-2.1-5.07-7.14,12L70.84,48Z" style="mix-blend-mode:multiply;fill:url(#c)"/></g></mask><linearGradient id="l" x1="-769.51" y1="-265.34" x2="-769.51" y2="-280.45" gradientTransform="matrix(-0.92, -0.54, -0.48, 0.8, -783.38, -166.76)" xlink:href="#e"/><linearGradient id="m" x1="28.94" y1="59.91" x2="42.04" y2="59.91" gradientUnits="userSpaceOnUse"><stop offset="0" stop-color="#17b5e2"/><stop offset="1" stop-color="#7726dd"/></linearGradient><linearGradient id="n" x1="-812.65" y1="48.74" x2="-812.65" y2="25.56" gradientTransform="matrix(-1, 0, 0, 1, -778.29, 0)" gradientUnits="userSpaceOnUse"><stop offset="0" stop-color="#ff76a7"/><stop offset="1" stop-color="#ffd4b3"/></linearGradient></defs><g style="isolation:isolate"><path d="M105.93,72.33h0c0-2.58-1.67-5.16-5.07-7.13L65.3,44.67c-6.77-3.91-17.77-3.9-24.56,0L5.1,65.27C1.66,67.26,0,69.86,0,72.46v6.89c0,2.6,1.63,5.21,5.06,7.19l35.56,20.53c6.77,3.9,17.77,3.9,24.56,0l35.64-20.58c3.38-2,5.07-4.5,5.1-7h0Z" style="fill:url(#d)"/><path d="M5.07,85.72l35.56,20.53c6.77,3.91,17.77,3.9,24.56,0l35.64-20.57c3.45-2,5.14-4.61,5.09-7.21v.82c0,2.6-1.64,5.22-5.09,7.21L65.19,107.06c-6.79,3.91-17.79,3.92-24.56,0L5.07,86.54C1.64,84.56,0,82,0,79.34v-.82C0,81.13,1.64,83.74,5.07,85.72Z" style="mix-blend-mode:overlay"/><path d="M5.07,79.37,40.63,99.9c6.77,3.91,17.77,3.91,24.56,0l35.64-20.58c3.45-2,5.14-4.61,5.09-7.21v.82c0,2.6-1.64,5.22-5.09,7.21L65.19,100.71c-6.79,3.92-17.79,3.93-24.56,0L5.07,80.19C1.64,78.21,0,75.6,0,73v-.82C0,74.78,1.64,77.39,5.07,79.37Z" style="fill:#fff"/><path d="M100.83,82.59,65.19,103.17c-6.79,3.92-17.79,3.92-24.56,0L5.07,82.65C1.64,80.67,0,78.06,0,75.46v.59H0c-.06,2.6,1.63,5.21,5.06,7.19l35.56,20.53c6.77,3.91,17.77,3.91,24.56,0l35.64-20.58c3.45-2,5.14-4.61,5.09-7.21h0v-.59C106,78,104.28,80.6,100.83,82.59Z" style="mix-blend-mode:overlay"/><path d="M5.07,83.25l35.56,20.53c6.77,3.91,17.77,3.91,24.56,0l35.64-20.58c3.45-2,5.14-4.61,5.09-7.21v.82c0,2.61-1.64,5.22-5.09,7.21L65.19,104.59c-6.79,3.92-17.79,3.92-24.56,0L5.07,84.07C1.64,82.09,0,79.48,0,76.88v-.82C0,78.66,1.64,81.27,5.07,83.25Z" style="fill:#fff"/><path d="M5.07,79.44c-6.77-3.9-6.76-10.25,0-14.17L40.74,44.69c6.79-3.92,17.79-3.93,24.56,0L100.86,65.2c6.77,3.92,6.76,10.26,0,14.18L65.19,100c-6.79,3.92-17.79,3.93-24.56,0Z" style="fill:url(#e)"/><path d="M100.86,65.2,65.3,44.67a18.75,18.75,0,0,0-2.3-1.1H60.47L78.29,83.92H93l7.86-4.54C107.62,75.46,107.63,69.12,100.86,65.2Z" style="fill:#dbdef8;opacity:0.6000000000000001;mix-blend-mode:multiply"/><path d="M73.87,78.44V61.11a15.69,15.69,0,0,1,2.26-7.57L86.74,35.2a15.57,15.57,0,0,1,5.44-5.74l4-2.32A1,1,0,0,1,97,27a.62.62,0,0,0-.23-.14.7.7,0,0,0-.24-.13.53.53,0,0,0-.23-.13.55.55,0,0,0-.23-.14.59.59,0,0,0-.23-.13.58.58,0,0,0-.24-.14.65.65,0,0,0-.23-.13.45.45,0,0,0-.23-.13.62.62,0,0,0-.23-.14.56.56,0,0,0-.24-.13.55.55,0,0,0-.23-.14.88.88,0,0,0-.23-.14.76.76,0,0,0-.23-.13.7.7,0,0,0-.24-.13.53.53,0,0,0-.23-.13.55.55,0,0,0-.23-.14.72.72,0,0,0-.24-.14,38392485967048.14,38392485967048.14,0,0,1-.46-.26.68.68,0,0,0-.23-.14.76.76,0,0,0-.23-.13.84.84,0,0,0-.24-.14.65.65,0,0,0-.23-.13.53.53,0,0,0-.23-.13.72.72,0,0,0-.24-.14.58.58,0,0,0-.23-.13.55.55,0,0,0-.23-.14.65.65,0,0,0-.23-.13.56.56,0,0,0-.24-.13A.68.68,0,0,0,90,23a.53.53,0,0,0-.23-.13.79.79,0,0,0-.23-.14.7.7,0,0,0-.24-.13.53.53,0,0,0-.23-.13.55.55,0,0,0-.23-.14.56.56,0,0,0-.24-.13.59.59,0,0,0-.23-.14.65.65,0,0,0-.23-.13.68.68,0,0,0-.23-.14.76.76,0,0,0-.23-.13.56.56,0,0,0-.24-.13.55.55,0,0,0-.23-.14.65.65,0,0,0-.23-.13.79.79,0,0,0-.23-.14.7.7,0,0,0-.24-.13.68.68,0,0,0-.23-.14.65.65,0,0,0-.23-.13.76.76,0,0,0-.23-.13.58.58,0,0,0-.24-.14.65.65,0,0,0-.23-.13.68.68,0,0,0-.23-.14.7.7,0,0,0-.24-.13.58.58,0,0,0-.23-.13.55.55,0,0,0-.23-.14.65.65,0,0,0-.23-.13A.72.72,0,0,0,84,19.5a.65.65,0,0,0-.23-.13.53.53,0,0,0-.23-.13.55.55,0,0,0-.23-.14.7.7,0,0,0-.24-.13.55.55,0,0,0-.23-.14.65.65,0,0,0-.23-.13.59.59,0,0,0-.23-.13.58.58,0,0,0-.24-.14.48.48,0,0,0-.23-.13.55.55,0,0,0-.23-.14.76.76,0,0,0-.23-.13.56.56,0,0,0-.24-.13.55.55,0,0,0-.23-.14.53.53,0,0,0-.23-.13.62.62,0,0,0-.23-.14.7.7,0,0,0-.24-.13.68.68,0,0,0-.23-.14.65.65,0,0,0-.23-.13.59.59,0,0,0-.23-.13.58.58,0,0,0-.24-.14.53.53,0,0,0-.23-.13.68.68,0,0,0-.23-.14.76.76,0,0,0-.23-.13.72.72,0,0,0-.24-.14.65.65,0,0,0-.23-.13A.53.53,0,0,0,78,16a.58.58,0,0,0-.24-.14.48.48,0,0,0-.23-.13.55.55,0,0,0-.23-.14.65.65,0,0,0-.23-.13.59.59,0,0,0-.23-.13.58.58,0,0,0-.24-.14.53.53,0,0,0-.23-.13.55.55,0,0,0-.23-.14.76.76,0,0,0-.23-.13.72.72,0,0,0-.24-.14.65.65,0,0,0-.23-.13.53.53,0,0,0-.23-.13.58.58,0,0,0-.24-.14.65.65,0,0,0-.23-.13.68.68,0,0,0-.23-.14.65.65,0,0,0-.23-.13.72.72,0,0,0-.24-.14,9598121491702.7,9598121491702.7,0,0,0-.46-.26.62.62,0,0,0-.23-.14.7.7,0,0,0-.24-.13.68.68,0,0,0-.23-.14.65.65,0,0,0-.23-.13.76.76,0,0,0-.23-.13.58.58,0,0,0-.24-.14.65.65,0,0,0-.23-.13.55.55,0,0,0-.23-.14.7.7,0,0,0-.24-.13.48.48,0,0,0-.23-.13A.55.55,0,0,0,71,12a.65.65,0,0,0-.23-.13.62.62,0,0,0-.23-.14.7.7,0,0,0-.24-.13.53.53,0,0,0-.23-.13.55.55,0,0,0-.23-.14.59.59,0,0,0-.23-.13.58.58,0,0,0-.24-.14.65.65,0,0,0-.23-.13.45.45,0,0,0-.23-.13.62.62,0,0,0-.23-.14.56.56,0,0,0-.24-.13.55.55,0,0,0-.23-.14.79.79,0,0,0-.23-.14.7.7,0,0,0-.24-.13.58.58,0,0,0-.23-.13.53.53,0,0,0-.23-.13A.55.55,0,0,0,67,9.71a.72.72,0,0,0-.24-.14.65.65,0,0,0-.23-.13.65.65,0,0,0-.23-.13.79.79,0,0,0-.23-.14A.7.7,0,0,0,65.85,9a.53.53,0,0,0-.23-.13.55.55,0,0,0-.23-.14.53.53,0,0,0-.23-.13.72.72,0,0,0-.24-.14.65.65,0,0,0-.23-.13.68.68,0,0,0-.23-.14.76.76,0,0,0-.23-.13A.56.56,0,0,0,64,8a.55.55,0,0,0-.23-.14.53.53,0,0,0-.23-.13.79.79,0,0,0-.23-.14.7.7,0,0,0-.24-.13.53.53,0,0,0-.23-.13.55.55,0,0,0-.23-.14A.56.56,0,0,0,62.36,7a.59.59,0,0,0-.23-.14.65.65,0,0,0-.23-.13.68.68,0,0,0-.23-.14.7.7,0,0,0-.24-.13.48.48,0,0,0-.23-.13A.55.55,0,0,0,61,6.22a.65.65,0,0,0-.23-.13A.79.79,0,0,0,60.51,6a.7.7,0,0,0-.24-.13A.68.68,0,0,0,60,5.68a.65.65,0,0,0-.23-.13.7.7,0,0,0-.24-.13.55.55,0,0,0-.23-.14.65.65,0,0,0-.23-.13A.79.79,0,0,0,58.88,5a.7.7,0,0,0-.24-.13.58.58,0,0,0-.23-.13.55.55,0,0,0-.23-.14A.65.65,0,0,0,58,4.48a.58.58,0,0,0-.24-.14.65.65,0,0,0-.23-.13.53.53,0,0,0-.23-.13A.62.62,0,0,0,57,3.94a.7.7,0,0,0-.24-.13.55.55,0,0,0-.23-.14.65.65,0,0,0-.23-.13.59.59,0,0,0-.23-.13.58.58,0,0,0-.24-.14.53.53,0,0,0-.23-.13A.55.55,0,0,0,55.39,3a.76.76,0,0,0-.23-.13.56.56,0,0,0-.24-.13.55.55,0,0,0-.23-.14.68.68,0,0,0-.23-.14.76.76,0,0,0-.23-.13A.7.7,0,0,0,54,2.2a.68.68,0,0,0-.23-.14.65.65,0,0,0-.23-.13.58.58,0,0,0-.24-.14.65.65,0,0,0-.23-.13.53.53,0,0,0-.23-.13.68.68,0,0,0-.23-.14.76.76,0,0,0-.23-.13.66.66,0,0,0-.24-.14A.65.65,0,0,0,51.9,1a.53.53,0,0,0-.23-.13.58.58,0,0,0-.24-.14A.48.48,0,0,0,51.2.59.55.55,0,0,0,51,.45a.65.65,0,0,0-.23-.13A.72.72,0,0,0,50.5.18a.86.86,0,0,0-1,0l-4,2.32A15.65,15.65,0,0,0,40,8.23L29.38,26.58a15.61,15.61,0,0,0-2.25,7.56V51.48c0,2.51.91,4.25,2.37,5l.23.13.24.14.23.13a1.71,1.71,0,0,0,.23.13l.24.14a1.71,1.71,0,0,0,.23.13l.24.14.22.13.24.13.23.14a1.71,1.71,0,0,0,.23.13l.24.14.22.13.24.13.23.14.23.13.24.14.23.13a1.71,1.71,0,0,0,.23.13l.23.14.24.14.23.13a1.71,1.71,0,0,0,.23.13l.23.14.24.13.23.14.23.13.23.13.24.14a1.71,1.71,0,0,0,.23.13l.24.14a25594990644589.73,25594990644589.73,0,0,1,.46.26l.23.14.23.13.24.14a1.71,1.71,0,0,0,.23.13l.23.14.23.13.24.13L39,62l.23.13.23.14.24.13a1.71,1.71,0,0,0,.23.13l.24.14.22.13.23.14.24.13.23.14.24.13a1.71,1.71,0,0,0,.23.13l.23.14.23.13.23.14.24.13.23.13.23.14.23.13.24.14.23.13.23.13.23.14.24.13.23.14.24.13a1.27,1.27,0,0,0,.22.13l.24.14a1.71,1.71,0,0,0,.23.13l.24.14L46,66l.24.14a4265831774098.93,4265831774098.93,0,0,0,.46.26l.24.14a1.71,1.71,0,0,0,.23.13l.23.14.23.13.24.13.23.14.23.13.23.14.23.13.24.14.24.13.22.13.24.14a1.71,1.71,0,0,0,.23.13l.23.14.24.14.22.13.24.13.23.13.23.14.24.14.23.13.23.13.23.14.24.13.24.14.22.13.24.13.23.14.23.13.24.14.22.13.24.13.23.14.23.13.24.14.23.13a1.71,1.71,0,0,0,.23.13l.23.14.23.13.25.14.22.13.23.13.24.14a1.71,1.71,0,0,0,.23.13,1.34,1.34,0,0,0,.23.13l.23.14.24.13.23.14.24.14.22.13.24.13a1.71,1.71,0,0,0,.23.13l.23.14.24.14.23.13a1.71,1.71,0,0,0,.23.13l.23.14.24.13.23.14.23.13.23.13.23.14.24.13a1.38,1.38,0,0,0,.24.14l.22.13.23.13.24.14a1.71,1.71,0,0,0,.23.13l.24.14a4265831774098,4265831774098,0,0,0,.46.26l.23.14.23.13.24.14a1.71,1.71,0,0,0,.23.13l.23.14.23.13.24.13.23.14.23.13.23.14.24.13.23.14.24.13.22.13.23.14.24.13.23.14.24.13a1.71,1.71,0,0,0,.23.13l.23.14.23.13.23.14.24.13.23.13.23.14.23.13.24.14.23.13.23.13.24.14a1.71,1.71,0,0,0,.23.13l.24.14.22.13.24.13.23.14a1.71,1.71,0,0,0,.23.13l.24.14.22.13.24.14.23.13.23.13.24.14.23.13.23.14.23.13.23.14.25.13.22.13.23.14.24.13.23.14.24.13.22.13.23.14C74.69,82.5,73.87,80.82,73.87,78.44Z" style="fill:url(#f)"/><path d="M81.57,79.74,96.2,71.29a1,1,0,0,1,.82-.12.79.79,0,0,0-.23-.14.7.7,0,0,0-.24-.13.65.65,0,0,0-.23-.13.55.55,0,0,0-.23-.14.76.76,0,0,0-.23-.13.72.72,0,0,0-.24-.14.65.65,0,0,0-.23-.13.53.53,0,0,0-.23-.13.62.62,0,0,0-.23-.14.7.7,0,0,0-.24-.13.55.55,0,0,0-.23-.14.65.65,0,0,0-.23-.13.59.59,0,0,0-.23-.13.58.58,0,0,0-.24-.14.53.53,0,0,0-.23-.13A.55.55,0,0,0,93.3,69a.7.7,0,0,0-.24-.13.53.53,0,0,0-.23-.13.55.55,0,0,0-.23-.14.53.53,0,0,0-.23-.13.62.62,0,0,0-.23-.14.8.8,0,0,0-.24-.13.68.68,0,0,0-.23-.14.65.65,0,0,0-.23-.13.56.56,0,0,0-.24-.13.49.49,0,0,0-.23-.14.53.53,0,0,0-.23-.13.68.68,0,0,0-.23-.14.7.7,0,0,0-.24-.13.68.68,0,0,0-.23-.14.65.65,0,0,0-.23-.13.59.59,0,0,0-.23-.13.58.58,0,0,0-.24-.14.65.65,0,0,0-.23-.13.68.68,0,0,0-.23-.14.7.7,0,0,0-.24-.13.48.48,0,0,0-.23-.13.55.55,0,0,0-.23-.14.65.65,0,0,0-.23-.13.79.79,0,0,0-.23-.14.7.7,0,0,0-.24-.13.68.68,0,0,0-.23-.14A.65.65,0,0,0,87,65.4a.76.76,0,0,0-.23-.13.58.58,0,0,0-.24-.14.65.65,0,0,0-.23-.13.68.68,0,0,0-.23-.14.76.76,0,0,0-.23-.13.72.72,0,0,0-.24-.14,5484640852421.44,5484640852421.44,0,0,0-.46-.26.58.58,0,0,0-.24-.14.58.58,0,0,0-.23-.13.68.68,0,0,0-.23-.14.65.65,0,0,0-.23-.13,1,1,0,0,0-.24-.14,38392485967011.6,38392485967011.6,0,0,0-.46-.26.55.55,0,0,0-.23-.14.7.7,0,0,0-.24-.13.68.68,0,0,0-.23-.14.65.65,0,0,0-.23-.13.76.76,0,0,0-.23-.13.58.58,0,0,0-.24-.14.58.58,0,0,0-.23-.13.68.68,0,0,0-.23-.14.76.76,0,0,0-.23-.13.56.56,0,0,0-.24-.13.55.55,0,0,0-.23-.14.65.65,0,0,0-.23-.13.62.62,0,0,0-.23-.14.7.7,0,0,0-.24-.13.53.53,0,0,0-.23-.13.55.55,0,0,0-.23-.14.59.59,0,0,0-.23-.13.58.58,0,0,0-.24-.14.65.65,0,0,0-.23-.13.53.53,0,0,0-.23-.13.62.62,0,0,0-.23-.14.56.56,0,0,0-.24-.13.55.55,0,0,0-.23-.14.65.65,0,0,0-.23-.13.72.72,0,0,0-.24-.14.58.58,0,0,0-.23-.13.53.53,0,0,0-.23-.13.55.55,0,0,0-.23-.14.76.76,0,0,0-.23-.13,1,1,0,0,0-.18-.13A8.61,8.61,0,0,1,77,57a8.76,8.76,0,0,0-.41,2.5V76.88C76.59,80,78.83,81.32,81.57,79.74Z" style="fill:url(#g)"/><path d="M96.2,74.42,81.57,82.87c-4.24,2.45-7.7.46-7.7-4.43V61.11a15.69,15.69,0,0,1,2.26-7.57L86.74,35.2a15.57,15.57,0,0,1,5.44-5.74l4-2.32c.75-.43,1.35-.08,1.35.78a3,3,0,0,1-1.35,2.35l-4,2.32a10.18,10.18,0,0,0-3.52,3.71L78.05,54.65a10.06,10.06,0,0,0-1.46,4.89V76.88c0,3.16,2.24,4.44,5,2.86L96.2,71.29c.75-.43,1.35-.08,1.35.78A3,3,0,0,1,96.2,74.42Z" style="fill:url(#h)"/><path d="M90.76,27l.22-.13L49.92,3.18,46.85,5a12.8,12.8,0,0,0-4.4,4.7L31.84,28A12.71,12.71,0,0,0,30,34.14v4.07L71,61.92v-.81a18.44,18.44,0,0,1,2.63-9L84.28,33.78A18.51,18.51,0,0,1,90.76,27Z" style="fill:url(#i)"/><path d="M48.28,21.82a3,3,0,0,0,.65.46L52,17.12l-.69-.4ZM70.86,33.75a5.16,5.16,0,0,1,.67.44L74,30.05l-.69-.4Zm-7-.73a2.85,2.85,0,0,0,.73.34l3.88-6.54-.69-.4Zm-3.36-6.83.38.92L63,23.59l-.69-.41Zm4.16,21.19-2.13-1.24-.54.91,2.12,1.25ZM55.56,22a4.51,4.51,0,0,1,.89.07l1-1.75L56.8,20Zm3.62,22.11L57.05,42.9l-.54.92,2.12,1.25ZM37.93,26.65l-.31.51,5.55,3.26L42,32.49l.69.4,1.22-2.06,4.81,2.82-1.22,2.07.69.4,1.22-2.06,4.81,2.83L53,39l.69.4,1.22-2.06,4.81,2.83-1.22,2.06.69.4,1.22-2.06,4.81,2.83L64,45.41l.69.41,1.22-2.07L71.41,47l.31-.51-5.55-3.26,4.74-8a2.73,2.73,0,0,0-.65-.46l-4.78,8L60.67,40,64,34.42a4.79,4.79,0,0,1-.71-.37L60,39.6l-4.81-2.83L60,28.57l-.38-.92-5.17,8.72-4.81-2.83,6-10.18-1,.11L49,33.14l-4.81-2.83,4.16-7a5.1,5.1,0,0,1-.67-.43l-4.18,7Zm4.75,7.81-2.13-1.25-.54.92,2.12,1.25Zm11,6.46-2.13-1.25-.54.92,2.12,1.25Zm-5.5-3.23-2.13-1.25-.54.92,2.12,1.25Z" style="fill:#fff;opacity:0.2"/><path d="M45.05,14.64,47.69,21a2.82,2.82,0,0,0,2.7,1.58l4.9-.55a4.85,4.85,0,0,1,4.64,2.72l3,7.11a2.75,2.75,0,0,0,2.69,1.58l2.69-.3a4.84,4.84,0,0,1,4.64,2.72L75,41l-.87,1.46L71.5,36a2.83,2.83,0,0,0-2.7-1.58l-2.69.3A4.74,4.74,0,0,1,61.47,32l-2.95-7.11a2.82,2.82,0,0,0-2.69-1.58l-4.9.55a4.87,4.87,0,0,1-4.64-2.73l-2.1-5.07Z" style="fill:#dbdef8;opacity:0.6000000000000001;mix-blend-mode:multiply"/><g style="mask:url(#j)"><path d="M74.14,42.41,71.5,36a2.83,2.83,0,0,0-2.7-1.58l-2.69.3A4.74,4.74,0,0,1,61.47,32l-2.95-7.11a2.82,2.82,0,0,0-2.69-1.58l-4.9.55a4.87,4.87,0,0,1-4.64-2.73l-2.1-5.07-7.14,12L70.84,48Z" style="fill:url(#l)"/></g><path d="M50.93,42.13l.63.22s-.09-.48-.12-.72a.89.89,0,0,1,.35-1A2.17,2.17,0,0,1,53,40.16a.5.5,0,0,1-.34.56c-.45.19-.45.48-.43.87A7.88,7.88,0,0,0,54,40.33a3.51,3.51,0,0,1,1.12-.68c.25-.12.41.14.15.37s-.77.46-1,.71-.83.92-.83.92,1-.78,1.2-.91,1.36-.92,1.53-.83c.33.27-.31.77-.71,1a8.37,8.37,0,0,0-1,.79l-.4.39a19.71,19.71,0,0,1,1.74-1c.3-.15.48.12.37.25s-.81.49-.95.63-.49.4-.65.54a9,9,0,0,0,1.23-.57c.23-.09.38,0,.3.11a4.83,4.83,0,0,1-.68.56c-.34.21-.94.44-1,.52s-.72.29-.9.42a3.5,3.5,0,0,1-1.15.33c-.67.07-2.47.11-2.47.11Z" style="fill:#fedcd8"/><path d="M39.19,77.27a1.33,1.33,0,0,0-.31,1.09,1.77,1.77,0,0,0,1.46,1.31c.46.09,1.32.08,1.63-.48s.28-1.75-.74-1.85C40.55,77.27,39.71,76.75,39.19,77.27Z" style="fill:#fff"/><path d="M38.67,80.39h0a10.92,10.92,0,0,1,0-2.27c.33-.26.91.92,1.36,1.16S41.48,79,41.48,79c1.19-.68-.13-1.69.11-1.88s1.06.25,1.8.38a4.28,4.28,0,0,0,2.1,0c.8-.28,1.33-.09,1.51.18a.91.91,0,0,1,.21.67c0,.5-1.39,1.62-4.11,2.81a24.15,24.15,0,0,1-2.45,1c-.71.21-2.06-.13-2.14-1.13A.84.84,0,0,1,38.67,80.39Z" style="fill:#0b0d61"/><path d="M32.36,73.36a1.34,1.34,0,0,0-.25,1.11,1.76,1.76,0,0,0,1.51,1.24c.47.07,1.33,0,1.61-.56s.2-1.77-.82-1.82C33.72,73.3,32.86,72.82,32.36,73.36Z" style="fill:#fff"/><path d="M32,76.5h0a11.58,11.58,0,0,1-.08-2.27c.32-.27,1,.88,1.42,1.1s1.4-.33,1.4-.33c1.16-.73-.21-1.68,0-1.89s1.06.21,1.81.3a4.17,4.17,0,0,0,2.09-.13c.79-.31,1.33-.15,1.52.11a.88.88,0,0,1,.24.66c.08.5-1.31,1.69-4,3a26.06,26.06,0,0,1-2.4,1.14c-.7.24-2.06,0-2.19-1A.86.86,0,0,1,32,76.5Z" style="fill:#0b0d61"/><path d="M39.59,46.75c1.3,6.89,2.64,10.83,2.43,14.76-.2,3.67.31,9.4-.25,15.11-.11,1.09-3.13,1.64-3.18,1.08-.32-3.71-.76-11.79-.42-15.21C36.94,56.8,35.7,55,34.89,51.81a42.8,42.8,0,0,1,.43,8c-.19,2.87-.79,9.55-.6,12.74,0,.6-2.68,1.92-2.88,1.35-1.06-3.07-.86-11.66-.75-15.34-1.83-6.36-2.41-11.14-2.05-14.3C29.77,37.81,39.59,46.75,39.59,46.75Z" style="fill:url(#m)"/><path d="M29.69,25.61c-4,1.12-2.54,7.84-.83,12.3C32.34,38.11,29.69,25.61,29.69,25.61Z" style="fill:#ebe6ff"/><path d="M32.8,22.46l-2-2.64,6.62-3.46s1.15-.11.88,1.9a8.16,8.16,0,0,1,0,4.67c-.33,1.11-1.43,1-2.61.89v3l-3.57-.63s.24-2.14.56-3.62C32.73,22.5,32.77,22.49,32.8,22.46Z" style="fill:#fedcd8"/><path d="M37,26.94s3.19,1.42,3.93,2.57c-1,1.31-.82,15.67-.71,17.09C40,48,36,49.42,32.85,48.38c-.33-.11-1.09-3.13-1.13-4.64-.49,1.2-.78,3.85-1.06,3.69-1.11-.64-1.91-.93-2.24-2-.71-3.58-1.07-17.2.54-19.4.76-1.05,3.6,0,3.6,0Z" style="fill:url(#n)"/><path d="M33.23,23c-1.86-1.21-3.84-4.39-2-6-.12-1.71.85-2.67,2.71-2.58,1,.05,2.42-.42,3.77.64,1.19.94,1.38,1.79.72,1.88s-3,.51-2.61,1.53,0,2.32-.48,1.84c-1.06-1-1.33-.36-1.49.3A5.22,5.22,0,0,1,33.23,23Z" style="fill:#0b0d61"/><path d="M32.32,24.86c.63.3,2.69,1,3.41.59A6.44,6.44,0,0,1,37,27a5.81,5.81,0,0,1-3.74.22,2.81,2.81,0,0,1-1.8-1.49C31.83,25.34,32.32,24.86,32.32,24.86Z" style="fill:#ebe6ff"/><path d="M40.89,29.51S43,35,45.11,37s4.62,4.3,5.86,4.85c.73.44-.34,2.27-.9,2.21-1.57-.16-4.07-2.33-6.41-4.28-1.52-1.27-4.14-3.49-4.6-5.26C38.72,33.25,39.18,28.66,40.89,29.51Z" style="fill:#ebe6ff"/></g></svg>