<svg xmlns="http://www.w3.org/2000/svg" width="35" height="35.45" viewBox="0 0 26 35.45"><defs><style>.a{fill:#e5e5e5;}.b{fill:#d6d6d6;}.c{fill:#fdb62f;}.d{fill:#ffa230;}.e{fill:#126099;}.f{fill:#fdc353;}</style></defs><path class="a" d="M17.73,16.55V9.45A4.72,4.72,0,0,0,13,4.73h0A4.72,4.72,0,0,0,8.27,9.45v7.1H3.55V9.45A9.45,9.45,0,0,1,13,0h0a9.45,9.45,0,0,1,9.45,9.45v7.1Z"/><path class="b" d="M3.55,16.55H8.27V11a46.9,46.9,0,0,1-4.72,2Z"/><path class="b" d="M19.49,2.59A32.2,32.2,0,0,1,16.1,5.91a4.72,4.72,0,0,1,1.63,3.54v7.1h4.72V9.45A9.43,9.43,0,0,0,19.49,2.59Z"/><rect class="c" y="14.18" width="26" height="21.27"/><rect class="c" y="14.18" width="26" height="21.27"/><path class="d" d="M26,35.45H0C7.37,30.73,18.63,30.73,26,35.45Z"/><rect class="e" x="11.82" y="24.82" width="2.36" height="5.91"/><circle class="e" cx="13" cy="23.64" r="2.36"/><path class="f" d="M0,14.18H26C18.63,18.91,7.37,18.91,0,14.18Z"/></svg>