<svg xmlns="http://www.w3.org/2000/svg" xmlns:xlink="http://www.w3.org/1999/xlink" viewBox="0 0 51.99 44"><defs><linearGradient id="a" y1="22" x2="51.99" y2="22" gradientUnits="userSpaceOnUse"><stop offset="0" stop-color="#89ced6"/><stop offset="1" stop-color="#1fa1ae"/></linearGradient></defs><path d="M32.44,31a3.26,3.26,0,0,1-3.26-3.26V24.44a3.25,3.25,0,0,1,3.26-3.25H52V31Zm2.44-7.19a2.44,2.44,0,1,0,2.45,2.44A2.44,2.44,0,0,0,34.88,23.77Zm-7.33.67V27.7a4.89,4.89,0,0,0,4.89,4.89H48.73v6.52A4.88,4.88,0,0,1,43.85,44h-39A4.89,4.89,0,0,1,0,39.11v-31A4.89,4.89,0,0,1,4.89,3.26H20.58l-3.82,1.6H4.07a2.44,2.44,0,0,0,0,4.88H48.73v9.82H32.44A4.88,4.88,0,0,0,27.55,24.44ZM13,8.05,36.92,0l3.67,8.05ZM40,3.26h3.84a4.86,4.86,0,0,1,3.59,1.6H40.79Z" style="fill-rule:evenodd;fill:url(#a)"/></svg>