<svg xmlns="http://www.w3.org/2000/svg" xmlns:xlink="http://www.w3.org/1999/xlink" width="85.89" height="110" viewBox="0 0 85.89 110"><defs><linearGradient id="a" x1="0.08" y1="96.53" x2="85.89" y2="96.53" gradientUnits="userSpaceOnUse"><stop offset="0.29" stop-color="#eaeaf9"/><stop offset="0.39" stop-color="#e3e3f7"/><stop offset="0.53" stop-color="#d0d0f2"/><stop offset="0.63" stop-color="#bebeed"/></linearGradient><linearGradient id="b" x1="1546.19" y1="11408.91" x2="1546.19" y2="11447.7" gradientTransform="translate(2024.42 14726.55) rotate(180) scale(1.28)" gradientUnits="userSpaceOnUse"><stop offset="0" stop-color="#f1f4fe"/><stop offset="0.58" stop-color="#f7f9fe"/><stop offset="1" stop-color="#fff"/></linearGradient><linearGradient id="c" x1="-222.24" y1="2898.53" x2="-217.45" y2="2898.53" gradientTransform="translate(417.76 -4833) scale(1.7)" gradientUnits="userSpaceOnUse"><stop offset="0" stop-color="#eff1fe"/><stop offset="1" stop-color="#e4e7fb"/></linearGradient><linearGradient id="d" x1="1818.99" y1="2018.52" x2="1841.83" y2="2018.51" gradientTransform="translate(-2805.26 -3116.06) rotate(0.01) scale(1.55)" gradientUnits="userSpaceOnUse"><stop offset="0" stop-color="#e4e7fb"/><stop offset="1" stop-color="#e4e7fb"/></linearGradient><linearGradient id="e" x1="1842.21" y1="2023.72" x2="1837.59" y2="2018.22" gradientTransform="translate(-2805.26 -3116.06) rotate(0.01) scale(1.55)" gradientUnits="userSpaceOnUse"><stop offset="0" stop-color="#fff"/><stop offset="1" stop-color="#e4e7fb"/></linearGradient><linearGradient id="f" x1="-522.42" y1="540.51" x2="-536.93" y2="500.65" gradientTransform="translate(633.16 -499.66) scale(1.08)" gradientUnits="userSpaceOnUse"><stop offset="0" stop-color="#b7c0eb"/><stop offset="0.11" stop-color="#cfd4f3"/><stop offset="0.22" stop-color="#dee2f9"/><stop offset="0.3" stop-color="#e4e7fb"/><stop offset="1" stop-color="#e4e7fb"/></linearGradient><linearGradient id="g" x1="1849.21" y1="2039.93" x2="1849.21" y2="2019.41" gradientTransform="translate(-2805.26 -3116.06) rotate(0.01) scale(1.55)" gradientUnits="userSpaceOnUse"><stop offset="0" stop-color="#e4e7fb"/><stop offset="0.38" stop-color="#eaecfc"/><stop offset="0.89" stop-color="#fafbfe"/><stop offset="1" stop-color="#fff"/></linearGradient><linearGradient id="h" x1="5.19" y1="64.56" x2="56.06" y2="32.11" gradientUnits="userSpaceOnUse"><stop offset="0" stop-color="#9313db"/><stop offset="1" stop-color="#7f98f4"/></linearGradient></defs><g style="isolation:isolate"><path d="M1.58,87.24c-2-1.15-2-3,0-4.18L39.25,86.7a7.94,7.94,0,0,1,7.2,0l37.94-3.64c2,1.15,2,3,0,4.18l-37.69,21.9a8,8,0,0,1-7.21,0Z" style="fill:url(#a)"/><path d="M85.87,83a.44.44,0,0,1,0,.16.5.5,0,0,1,0,.13.75.75,0,0,1,0,.16.61.61,0,0,0,0,.12s0,.1-.08.16a2.39,2.39,0,0,1-.13.21s0,0,0,0a1.63,1.63,0,0,1-.17.2l0,0-.22.21-.15.13-.14.11-.19.12-.19.13-37.69,21.9-.07,1.47L84.33,86.4s0,0,.06,0l.14-.09.18-.12.14-.11.15-.13,0,0,.19-.19,0,0,.09-.11a.86.86,0,0,1,.07-.1.05.05,0,0,0,0,0l.12-.17a.08.08,0,0,1,0,0l.07-.15a1,1,0,0,1,0-.1s0,0,0,0a.66.66,0,0,0,0-.15.17.17,0,0,0,0-.1,0,0,0,0,1,0,0s0-.1,0-.15,0-.08,0-.11v0l.08-1.48A.77.77,0,0,1,85.87,83Z" style="fill:#e4e7fb"/><path d="M1.58,84.93a2.54,2.54,0,0,1-1.5-2.1L0,84.3a2.54,2.54,0,0,0,1.5,2.1l37.94,21.9.07-1.46Z" style="fill:#eff1fe"/><path d="M84.39,80.76c2,1.15,2,3,0,4.18l-37.69,21.9a8,8,0,0,1-7.21,0L1.58,84.93c-2-1.15-2-3,0-4.17l37.68-21.9a8,8,0,0,1,7.21,0Z" style="fill:#fff"/><path d="M1.58,83.26c-2-1.14-2-3,0-4.17l37.69-21.9a7.88,7.88,0,0,1,7.2,0l37.94,21.9c2,1.15,2,3,0,4.18L46.72,105.16a8,8,0,0,1-7.21,0Z" style="fill:url(#b)"/><path d="M46.17,108.55c.17-.08.77-.42.93-.51v-1.42c-.16.09-.69.38-.85.45l-.15.07-.39.14-.16.06-.25.07-.21.06-.28.06-.19,0-.58.08-.19,0H42.77l-.25,0a1,1,0,0,1-.25,0l-.25,0-.23,0-.27,0-.21,0a1.87,1.87,0,0,1-.32-.08l-.17,0-.55-.19-.25-.11-.14,0-1-.53V108c.12.07.75.43.88.49l.12,0a1.15,1.15,0,0,0,.23.1s0,0,0,0c.18.07.36.12.55.18h0l.13,0,.31.07.09,0,.13,0,.26,0,.11,0,.13,0,.24,0,.13,0h.12l.25,0h.74l.34,0H44l.58-.08h0l.17,0,.27-.06.21,0,.26-.08.06,0,.09,0a3.53,3.53,0,0,0,.39-.15Z" style="fill:url(#c)"/><g style="opacity:0.05"><path d="M33.53,40.6a11.41,11.41,0,0,1,3.36,3c.35.6,6.9,12,13.29,15.66a20,20,0,0,0,5.66,2.37,3.37,3.37,0,0,1,1,.39,6.42,6.42,0,0,1,2.76,5.46l0,8.55c0,18.68-23.37,15.3-26.12,13.72S7.4,64.77,7.39,46.1l0-8.56c0-2.34,1.18-3.2,2.78-2.28a5.86,5.86,0,0,1,1,.78A31.29,31.29,0,0,0,16.7,40.1c6.47,3.71,13.06-.16,13.41-.36A5.22,5.22,0,0,1,33.53,40.6Z"/></g><path d="M28.21,13.62l.3-.12.08,0,.35-.15.06,0,.25-.11.07,0,.24-.11h0l.22-.11,0,0,.13-.07,0,0,.1,0L43.64,4.86l-.09,0,0,0L43.4,5l-.06,0-.19.1,0,0-.2.1-.09,0-.23.11-.08,0-.35.14-.07,0-.32.13-.11,0-.37.13-.07,0-.44.15-.11,0-.37.11-.16,0-.38.09-.13,0-.54.12h0l-.64.11-.13,0-.69.08-.2,0-.34,0H36l-.35,0h-.26l-.63-.07-.21,0-.45-.08-.21,0-.35-.08a1.83,1.83,0,0,1-.25-.06L33,6.36l-.32-.1-.22-.07-.35-.12L32,6l-.39-.16-.15-.06-.52-.24-.1-.06c-.18-.09-.36-.18-.53-.28l-.48-.29-.17-.09-.53-.34h0l-.51-.33L28.39,4l-.29-.2-.26-.18-.22-.16-.25-.17-.19-.14L26.89,3l-.15-.12-.26-.2-.14-.11c-.14-.1-.26-.21-.38-.31l0,0L25.63,2l-.22-.18a.46.46,0,0,1-.07-.07,1.27,1.27,0,0,1-.12-.1l-.08-.07L25,1.41l0,0a.6.6,0,0,1-.08-.08l-.05,0s0,0,0-.05a0,0,0,0,1,0,0l0,0L24.57,1,24.49.94l0,0,0,0L24.26.75l0,0,0,0-.06,0L24,.54h0l0,0-.08,0L23.73.38l0,0-.09,0-.11,0-.05,0h0l0,0-.11,0-.1,0-.1,0L23,.06h0l-.06,0H22.4l-.15,0-.17,0h0l-.2.09L8.3,8.05,8.5,8l.19,0h0l.18,0h.27l.21,0h0L9.61,8h0l.24.1h0l.25.13.23.15h0l.22.16,0,0,.23.19,0,0a2.39,2.39,0,0,1,.23.22l.07.06,0,0,.05.05.08.07,0,0h0l.06.05.08.07.06.06.14.12.07.06L12,9.8l0,0c.21.17.45.38.74.6h0l.08.06.3.24.15.11.28.21.07,0,.14.11.22.15.25.18.24.17.06,0,.23.15L15,12l.41.27.11.07h0l.51.32.18.1a2.26,2.26,0,0,0,.26.16l.22.13a2.85,2.85,0,0,0,.3.16l.22.11.11.07.05,0,.41.19.05,0,.16.06.24.1.14.06.19.07.13.05.22.07.22.07.08,0,.25.07.24.06.06,0,.21,0,.33.08h.08l.15,0,.44.07.11,0h.1c.21,0,.41.05.62.06H22l.39,0h1.05l.35,0,.15,0h0l.68-.08.17,0,.6-.11h.06l.53-.11.15,0,.37-.09.16-.05.35-.1.13,0,.43-.14h0l.07,0,.35-.12Z" style="fill:url(#d)"/><path d="M34.38,14.13a.16.16,0,0,0,.08.06l.39.3.09.07.34.29a.15.15,0,0,0,.06.05l.37.35.07.08c.12.11.24.24.35.36l0,0,.35.4,0,0c.12.14.49.73.6.87l13.3-8.31.57.95c-.06-.08-.7-1.14-.77-1.22a2.09,2.09,0,0,0-.14-.17l0,0,0,0c-.07-.07-.13-.15-.19-.22a1.07,1.07,0,0,1-.14-.16s0,0,0,0l0,0-.22-.24-.1-.09-.08-.08L49.2,7.3l-.27-.25,0,0L48.83,7l-.18-.17-.14-.11-.1-.08-.06-.05-.3-.23h0s-.05,0-.07-.06l-.2-.14L47.6,6s-.05,0-.09-.07l-.06,0-.29-.17-.07,0-.22-.12-.19-.1-.08,0h0L46.3,5.3l-.09,0-.09,0-.1,0-.27-.1h0l0,0L45.48,5l-.17,0h-.09L45,4.86h-.09l-.08,0h-.08l-.25,0H44a2,2,0,0,0-.27,0h0L30.11,12.72a1.86,1.86,0,0,1,.34,0h.43l.36,0,.08,0a2.74,2.74,0,0,1,.37.08h0l.37.11,0,0,.4.15.09,0,.4.18.06,0,.42.22.42.26a.47.47,0,0,0,.09.06Z" style="fill:url(#e)"/><path d="M73.21,32.6,59.64,40.48l0,35.57c0,.37,0,.73,0,1.09,0,.08,0,.16,0,.25,0,.27,0,.53-.07.79a2,2,0,0,1,0,.24c0,.33-.08.66-.14,1,0,0,0,0,0,.08,0,.29-.11.57-.18.85,0,.1,0,.2-.08.3l-.15.55c-.07.21-.14.43-.22.63a3.21,3.21,0,0,1-.12.33,7.76,7.76,0,0,1-.3.72l-.09.2a2.12,2.12,0,0,1-.11.21c-.09.19-.18.37-.28.54l-.17.29-.27.42a2.75,2.75,0,0,1-.19.28l-.28.39-.21.27-.3.35a2.73,2.73,0,0,1-.23.25,3.26,3.26,0,0,1-.31.33l-.24.24-.34.31-.25.21-.37.3-.24.18c-.14.11-.28.2-.42.3l-.21.15-.66.4,13.56-7.88a5.59,5.59,0,0,0,.66-.41l.21-.13.43-.31.23-.18.38-.3.24-.21.34-.31a2.72,2.72,0,0,0,.24-.24c.11-.1.21-.21.32-.33l.22-.24c.11-.12.21-.25.3-.36a2.47,2.47,0,0,0,.21-.27,4.1,4.1,0,0,0,.29-.4l.18-.26a.7.7,0,0,0,.06-.09c.08-.11.15-.24.22-.36l.16-.26c.1-.18.19-.36.28-.54l.12-.22s0,0,0,0,0-.12.07-.17c.11-.23.21-.47.31-.72l0-.08c0-.09.06-.19.09-.28l.21-.61a.58.58,0,0,1,0-.14c0-.14.07-.29.11-.43s0-.18.07-.28l0-.1c.06-.25.11-.52.16-.8,0,0,0,0,0,0h0c0-.28.09-.56.12-.85,0,0,0-.08,0-.12s0-.16,0-.23,0-.27,0-.41,0-.27,0-.4,0-.16,0-.24v-.14c0-.27,0-.54,0-.82V32.6Z" style="fill:url(#f)"/><path d="M57.45,35.42h0l.26.23,0,0a2.84,2.84,0,0,1,.23.25h0a3.11,3.11,0,0,1,.23.28s0,0,0,0a1.64,1.64,0,0,1,.19.25l0,.06a3.31,3.31,0,0,1,.18.29l0,0,.18.32s0,0,0,0a3.78,3.78,0,0,1,.17.35h0l.15.36v0a7.19,7.19,0,0,1,.24.79h0c0,.14.06.27.08.41h0c0,.14,0,.27.07.41v0c0,.14,0,.28,0,.41h0c0,.14,0,.29,0,.43L73.21,32.6c0-.07,0-.13,0-.2a1.77,1.77,0,0,0,0-.23h0a1.79,1.79,0,0,0,0-.23,1.1,1.1,0,0,0,0-.18v0l0-.21,0-.16s0,0,0,0h0a1.55,1.55,0,0,0,0-.21,1.16,1.16,0,0,0,0-.18h0l-.06-.2a1.21,1.21,0,0,0,0-.18h0v0a.88.88,0,0,0,0-.15,1.42,1.42,0,0,1,0-.16.14.14,0,0,1,0-.06s0,0,0,0,0-.06,0-.08,0-.1,0-.15l-.06-.14h0l-.06-.15a1,1,0,0,1-.07-.15l0-.05s0,0,0,0a.3.3,0,0,1,0-.08L72.23,29h0s0,0,0,0-.1-.18-.16-.27l0,0,0-.07a.71.71,0,0,0-.1-.14,1,1,0,0,0-.08-.11l0,0h0l-.09-.12h0l-.1-.11,0,0a0,0,0,0,1,0,0L71.48,28l-.1-.11-.08-.09h0v0l-.11-.1-.11-.1h0l0,0-.07-.05a.48.48,0,0,0-.11-.09l-.07-.05s0,0,0,0h0l-.11-.08-.12-.07,0,0-.09-.05L70.23,27h0l-.07,0-.12,0h0l0,0-.06,0-.14,0h-.07l-.08,0-.16,0h0l-.16,0-.08,0h0l-.09,0-.15,0-.07,0-.22-.06-.09,0-.21-.07-.1,0-.27-.09-.09,0-.22-.08-.16-.06-.21-.08L67,26l-.15-.06-.28-.12-.2-.08-.27-.12-.2-.09-.28-.14-.22-.1-.33-.17L64.9,25l-.51-.27c-.22-.11-.43-.23-.65-.36L63.17,24,63.06,24l-.41-.28-.19-.14c-.13-.1-.27-.19-.39-.29l-.16-.12-.36-.3-.23-.18L61,22.37l-.28-.23a2,2,0,0,0-.21-.2l-.41-.38-.21-.2-.43-.44-.23-.23c-.16-.16-.31-.32-.46-.49l-.2-.21-.69-.76s0,0,0,0c-.25-.28-.49-.56-.73-.85l-.16-.2c-.28-.33-.55-.67-.82-1L56,16.94l-.36-.46-.21-.27-.32-.42-.22-.3c-.08-.1-.15-.21-.23-.32l-.22-.3-.25-.35-.2-.28-.24-.35-.18-.26-.25-.35c0-.09-.11-.17-.16-.25l-.11-.16c-.08-.12-.17-.24-.24-.36l-.1-.14c-.09-.15-.19-.3-.29-.45l-.09-.14-.21-.32-.08-.13-.25-.4a.41.41,0,0,1-.07-.11l-.18-.27-.08-.13c-.07-.11-.13-.22-.2-.32L51.22,10a1.82,1.82,0,0,0-.15-.23.31.31,0,0,0,0-.1c-.05-.08-.1-.17-.15-.24v0l-.14-.23,0,0c-.13-.22-.21-.36-.25-.41L36.89,16.61l.07.12.18.31h0c.08.15.19.33.32.54l0,.05.2.33h0l.22.36a.56.56,0,0,1,0,.08l.22.34,0,.06c.09.13.18.28.27.42l.06.1.24.37.07.1.31.47.06.1.29.42.07.11.06.09.15.21.21.31.19.28.24.34.19.26.26.37.19.26.28.39.07.09.1.14.35.46.21.27.34.44.13.18h0l.06.07c.26.33.53.67.81,1l.07.08.08.1c.47.56.94,1.11,1.44,1.64l.07.08.12.13.47.49.13.14.09.09.46.45.14.14a.1.1,0,0,0,0,0c.15.16.31.29.46.44l.13.12s0,0,0,0l.34.29.23.2s0,0,0,0l.24.19.31.25,0,0,.16.12.28.22.11.08.2.14.17.12.24.16.11.07,0,0,.4.25.13.07.63.35h0l.52.27.18.1.23.11.09,0,.22.11.3.14.18.08.1.05.18.08.21.09.21.09.22.09h0l.15,0,.24.1.21.07.16.07h0l.11,0,.23.08.12,0,.19.06h0l.09,0,.17,0,.11,0,.14,0h.13l.11,0h0l.13,0h0l.24,0,0,0,.23.07,0,0,.22.09h0l.24.13.29.18v0Z" style="fill:url(#g)"/><path d="M33.53,13.58a11.31,11.31,0,0,1,3.36,3c.35.59,6.9,12,13.29,15.65a19.64,19.64,0,0,0,5.66,2.37,3.37,3.37,0,0,1,1,.39,6.43,6.43,0,0,1,2.76,5.46l0,35.57c0,18.68-23.37,15.3-26.12,13.72S7.4,64.77,7.39,46.1l0-35.57c0-2.35,1.18-3.21,2.78-2.29a5.49,5.49,0,0,1,1,.79,32.13,32.13,0,0,0,5.55,4.05c6.47,3.71,13.06-.16,13.41-.36A5.22,5.22,0,0,1,33.53,13.58Z" style="fill:#fff"/><path d="M41.89,90.43a22,22,0,0,1-8-1.21C31.1,87.63,8,64.51,8,46.1L8,10.53a2.44,2.44,0,0,1,.48-1.81A.63.63,0,0,1,9,8.52a1.73,1.73,0,0,1,.85.28,4.58,4.58,0,0,1,.89.69,33,33,0,0,0,5.67,4.14,12.67,12.67,0,0,0,6.39,1.69h0a16.33,16.33,0,0,0,7.56-2,1.87,1.87,0,0,1,.34,0,5.49,5.49,0,0,1,2.54.83A10.72,10.72,0,0,1,36.36,17c1.23,2.12,7.38,12.33,13.5,15.86a19.62,19.62,0,0,0,5.87,2.44,3.15,3.15,0,0,1,.83.32A5.78,5.78,0,0,1,59,40.48l0,35.57c0,5.26-1.92,9.15-5.7,11.57S45.1,90.43,41.89,90.43Z" style="fill:url(#h)"/><g style="opacity:0.30000000000000004;mix-blend-mode:overlay"><path d="M31.58,27.6a7.42,7.42,0,0,1,2.23,2c.23.4,4.59,8,8.84,10.41a13.22,13.22,0,0,0,3.77,1.58,2,2,0,0,1,.69.26A4.27,4.27,0,0,1,49,45.49V69.16c0,12.43-15.55,10.17-17.38,9.13S14.2,61.65,14.19,49.23l0-23.67c0-1.56.79-2.13,1.86-1.51a3.5,3.5,0,0,1,.67.51,20.13,20.13,0,0,0,3.69,2.7c4.31,2.47,8.69-.1,8.92-.24A3.47,3.47,0,0,1,31.58,27.6Z" style="fill:#fff"/></g><g style="opacity:0.30000000000000004;mix-blend-mode:overlay"><path d="M30.12,34.7a5.62,5.62,0,0,1,1.67,1.5c.17.3,3.44,5.95,6.61,7.78a10.15,10.15,0,0,0,2.82,1.17,1.44,1.44,0,0,1,.52.2,3.18,3.18,0,0,1,1.38,2.71v17.7c0,9.3-11.64,7.63-13,6.85s-13-12.42-13-21.71l0-17.7c0-1.17.59-1.6,1.38-1.14a2.67,2.67,0,0,1,.51.39,15.61,15.61,0,0,0,2.76,2,7,7,0,0,0,6.67-.19A2.58,2.58,0,0,1,30.12,34.7Z" style="fill:#fff"/></g></g></svg>