<svg xmlns="http://www.w3.org/2000/svg" viewBox="0 0 105.83 105" width="105"><defs><style>.a{fill:#7c9be4;}.b{fill:#61139f;}.c{fill:#e0eff9;}.d{fill:#f7d33f;}.e{fill:#cedbf5;}.f{fill:#5530b4;}.g{fill:#5530b3;}.h{fill:#fff;}.i{fill:none;stroke:#fff;stroke-miterlimit:10;stroke-width:0.5px;}.j{fill:#5725a4;opacity:0.1;}</style></defs><title>icon-assets</title><path class="a" d="M7,59.38s-7.84-2-6.91-21.05,1.46-22,21.53-28.47S59.1-10.75,75.18,14.38C88.47,31.26,93.54,37.57,98.1,41.08c7.26,5.6,20,26.12-21.24,44.29Z"/><path class="b" d="M4.69,33.72V72.55H43.51V33.72ZM41.86,70.89H6.34V35.37H41.86Z"/><polygon class="b" points="41.86 64.11 41.86 70.89 6.34 70.89 6.34 36.33 41.86 64.11"/><polygon class="c" points="41.86 64.11 41.86 70.89 6.34 70.89 6.34 36.33 41.86 64.11"/><polygon class="d" points="41.86 35.37 41.86 61.53 8.42 35.37 41.86 35.37"/><polygon class="b" points="41.86 61.53 41.86 64.11 6.34 36.33 6.34 35.37 8.42 35.37 41.86 61.53"/><rect class="b" x="21.55" y="58.52" width="6.99" height="1.66" rx="0.83" ry="0.83"/><rect class="b" x="21.55" y="60.62" width="6.99" height="1.66" rx="0.83" ry="0.83"/><path class="b" d="M17.42,57.53H15.19a4,4,0,1,0,0,5.74h2.23a2.87,2.87,0,0,0,0-5.74Zm0,4.15H14.26a2.19,2.19,0,1,1,0-2.56h3.16a1.28,1.28,0,0,1,0,2.56Z"/><path class="d" d="M18.7,60.4a1.28,1.28,0,0,1-1.28,1.28H14.26a2.19,2.19,0,1,1,0-2.56h3.16A1.28,1.28,0,0,1,18.7,60.4Z"/><path class="e" d="M81.23,94.49h-.5a6.89,6.89,0,0,1-2.64-5.25v-.41A7.14,7.14,0,0,0,81.23,94.49Z"/><path class="b" d="M93.22,72.55H79.74V27.1a.92.92,0,0,0-.92-.92H31.16a.92.92,0,0,0-.92.92V88.55A8.1,8.1,0,0,0,31,92a8,8,0,0,0,7.23,4.56H87.09a6.88,6.88,0,0,0,1.29-.11,7.45,7.45,0,0,0,6.17-7.34V73.87A1.33,1.33,0,0,0,93.22,72.55Zm-55,22.35a6.36,6.36,0,0,1-6.35-6.35V27.83h46.2V89.24a6.89,6.89,0,0,0,2.64,5.25,5,5,0,0,0,.5.41ZM92.9,89.1a5.81,5.81,0,0,1-5.81,5.8H85.77A5.39,5.39,0,0,1,82.71,94c-1.64-1.14-3-2.68-3-4.72v-15H92.9Z"/><path class="f" d="M92.9,74.2V89.09a5.81,5.81,0,0,1-5.81,5.81H85.77A5.39,5.39,0,0,1,82.71,94c-1.64-1.14-3-2.68-3-4.72v-15Z"/><rect class="b" x="59.65" y="82.1" width="1.58" height="4.97"/><ellipse class="g" cx="62.34" cy="103.55" rx="27.88" ry="1.45"/><path class="c" d="M81.23,94.9h-43a6.36,6.36,0,0,1-6.35-6.35V84.42l46.2-46.2v51a6.89,6.89,0,0,0,2.64,5.25A5,5,0,0,0,81.23,94.9Z"/><polygon class="h" points="78.09 27.42 78.09 38.22 31.89 84.42 31.89 27.42 78.09 27.42"/><rect class="b" x="47.81" y="32.04" width="7.25" height="1.72" rx="0.86" ry="0.86"/><rect class="b" x="47.81" y="34.22" width="7.25" height="1.72" rx="0.86" ry="0.86"/><path class="b" d="M43.53,31H41.22a4.1,4.1,0,0,0-6.91,3,4.1,4.1,0,0,0,6.91,3h2.31a3,3,0,1,0,0-5.95Zm0,4.3H40.25a2.28,2.28,0,1,1,0-2.65h3.28a1.33,1.33,0,0,1,0,2.65Z"/><path class="d" d="M44.85,34a1.33,1.33,0,0,1-1.32,1.33H40.25a2.28,2.28,0,1,1,0-2.65h3.28A1.32,1.32,0,0,1,44.85,34Z"/><polygon class="i" points="10.05 82.62 10.05 86.54 6.45 84.56 10.05 82.62"/><polygon class="i" points="10.05 82.62 10.05 86.54 6.45 84.56 10.05 82.62"/><polygon class="c" points="10.05 82.62 10.05 86.54 6.45 84.56 10.05 82.62"/><rect class="i" x="11.65" y="82.1" width="48" height="4.97"/><path class="b" d="M65.26,80.44H10.59L3,84.55l7.57,4.17H65.26a3.16,3.16,0,0,0,3.16-3.17V83.61A3.16,3.16,0,0,0,65.26,80.44Zm-55.21,6.1-3.6-2,3.6-1.94Zm1.6.53v-5h48v5Zm55.12-1.52a1.52,1.52,0,0,1-1.51,1.52h-4v-5h4a1.52,1.52,0,0,1,1.51,1.51Z"/><rect class="d" x="11.65" y="82.1" width="48" height="4.97"/><rect class="b" x="13.83" y="83.8" width="42.73" height="1.57" rx="0.78" ry="0.78"/><path class="f" d="M66.77,83.61v1.94a1.52,1.52,0,0,1-1.51,1.52h-4v-5h4A1.52,1.52,0,0,1,66.77,83.61Z"/><rect class="d" x="70.11" y="45.17" width="26.34" height="16.13"/><polygon class="j" points="96.45 45.17 96.45 61.3 77.11 61.3 93.24 45.17 96.45 45.17"/><path class="b" d="M97.48,43.52H69.08a.62.62,0,0,0-.62.62V62.33a.62.62,0,0,0,.62.62h28.4a.62.62,0,0,0,.62-.62V44.14A.62.62,0,0,0,97.48,43.52Zm-1,17.78H70.11V45.17H96.45Z"/><rect class="c" x="63.24" y="50.77" width="27.24" height="16.73"/><rect class="b" x="74.81" y="54.48" width="5.5" height="1.31" rx="0.65" ry="0.65"/><rect class="b" x="74.81" y="56.14" width="5.5" height="1.31" rx="0.65" ry="0.65"/><path class="b" d="M71.57,53.71H69.81a3.11,3.11,0,1,0,0,4.51h1.76a2.26,2.26,0,0,0,0-4.51Zm0,3.26H69.08a1.76,1.76,0,0,1-1.4.72,1.73,1.73,0,0,1,0-3.45,1.76,1.76,0,0,1,1.4.72h2.49a1,1,0,0,1,0,2Z"/><path class="d" d="M72.57,56a1,1,0,0,1-1,1H69.08a1.76,1.76,0,0,1-1.4.72,1.73,1.73,0,0,1,0-3.45,1.76,1.76,0,0,1,1.4.72h2.49A1,1,0,0,1,72.57,56Z"/><polygon class="j" points="90.55 54.98 90.55 67.72 77.81 67.72 90.55 54.98"/><path class="b" d="M91.06,49.42H62.66A.62.62,0,0,0,62,50V68.23a.62.62,0,0,0,.62.62h28.4a.62.62,0,0,0,.62-.62V50A.62.62,0,0,0,91.06,49.42ZM90,67.2H63.69V51.07H90Z"/></svg>