<svg xmlns="http://www.w3.org/2000/svg" width="30" height="30" viewBox="0 0 30 30">
  <g fill="none">
    <circle cx="15" cy="15" r="15" fill="#8DC351"/>
    <path fill="#FFF" d="M19.8815625,9.875625 C19.1540625,8.026875 17.3296875,7.86 15.2053125,8.2725 L14.44875,5.6353125 L12.84375,6.095625 L13.580625,8.664375 C13.15875,8.784375 12.729375,8.9175 12.3028125,9.04875 L11.5621875,6.463125 L9.958125,6.9225 L10.7128125,9.5596875 C10.3678125,9.6665625 10.0284375,9.7715625 9.695625,9.8671875 L9.6928125,9.8578125 L7.4784375,10.4925 L7.970625,12.208125 C7.970625,12.208125 9.15,11.844375 9.1359375,11.8725 C9.7865625,11.6859375 10.10625,12.0028125 10.2609375,12.31125 L11.1234375,15.315 C11.1675,15.3028125 11.2265625,15.2878125 11.2959375,15.2775 L11.12625,15.32625 L12.3328125,19.535625 C12.3628125,19.7484375 12.3365625,20.109375 11.8828125,20.240625 C11.908125,20.2528125 10.7146875,20.574375 10.7146875,20.574375 L10.94625,22.5834375 L13.035,21.9834375 C13.4240625,21.87375 13.8084375,21.770625 14.184375,21.6646875 L14.9503125,24.331875 L16.5534375,23.8725 L15.796875,21.2334375 C16.2268983,21.1193336 16.6556734,21.0005766 17.083125,20.8771875 L17.835,23.505 L19.4409375,23.0446875 L18.6778125,20.3821875 C21.331875,19.453125 23.0259375,18.2315625 22.53375,15.6290625 C22.138125,13.5346875 20.9175,12.8990625 19.2796875,12.9703125 C20.0746875,12.2296875 20.416875,11.2284375 19.8815625,9.8765625 L19.8815625,9.875625 Z M19.2721875,16.2225 C19.8440625,18.2165625 16.3659375,18.9684375 15.2784375,19.2815625 L14.265,15.7471875 C15.3525,15.435 18.675,14.1440625 19.27125,16.2234375 L19.2721875,16.2225 Z M17.0953125,11.450625 C17.6146875,13.2646875 14.7075,13.869375 13.8009375,14.1290625 L12.8821875,10.92375 C13.7878125,10.6640625 16.5525,9.5596875 17.0953125,11.4515625 L17.0953125,11.450625 Z"/>
  </g>
</svg>
