<svg xmlns="http://www.w3.org/2000/svg" viewBox="0 0 101.8 105" width="105"><defs><style>.a{fill:#7c9be4;}.b{fill:#fff;}.c,.g{fill:#5725a4;}.d{fill:#5530b3;}.e{fill:#e0eff9;}.f{fill:#f7d33f;}.g{opacity:0.1;}.h{fill:#5725a3;}</style></defs><title>icon-device</title><path class="a" d="M6.16,42.73a15.51,15.51,0,0,1-1-5.53C5.25,34.43,3.1,15,14.27,11.36S41.13,1.52,43,.81,57-2.1,63.79,6.14s6.8,8.54,6.8,8.54l1.09,6.12L42.37,45.9,16.12,53Z"/><path class="b" d="M95.55,19.66V68.21a5.29,5.29,0,0,1-5.29,5.29h-63l-.17,0H27l-.22,0h-.05l-.13,0h0l-.14,0L26,73.23l-.16-.06-.2-.09-.09,0-.09,0-.17-.09a4.28,4.28,0,0,1-.42-.26l-.12-.09h0l-.22-.17-.21-.19,0,0L24.1,72c-.07-.08-.14-.15-.2-.23a1.34,1.34,0,0,1-.11-.14l0,0-.12-.18-.09-.12-.11-.2-.17-.31-.07-.18-.06-.13s0-.1,0-.15S23,70.08,23,70a.24.24,0,0,1,0-.12,1.6,1.6,0,0,1,0-.21,1.42,1.42,0,0,1,0-.2l0-.23h0a.41.41,0,0,0,0-.11v0a.76.76,0,0,0,0-.15V19.16a4.79,4.79,0,0,1,4.78-4.79H90.26A5.29,5.29,0,0,1,95.55,19.66Z"/><rect class="a" x="27.54" y="18.16" width="64.14" height="36.13"/><path class="c" d="M92,16.62H27.26A1.25,1.25,0,0,0,26,17.88V54.56a1.25,1.25,0,0,0,1.26,1.26H92a1.25,1.25,0,0,0,1.26-1.26V17.88A1.25,1.25,0,0,0,92,16.62Zm-.28,37.66H27.54V18.16H91.68Z"/><ellipse class="d" cx="59.15" cy="92.92" rx="22.75" ry="1.86"/><rect class="c" x="60.58" y="20.85" width="1.94" height="68.01" transform="translate(116.4 -6.69) rotate(90)"/><path class="c" d="M86.06,23H33.16a1,1,0,0,0-1,1V34.42a1,1,0,0,0,1,1h52.9a1,1,0,0,0,1-1V24A1,1,0,0,0,86.06,23Zm-.54,10.87H33.7V24.55H85.52Z"/><rect class="c" x="48.94" y="21.18" width="1.88" height="35.44" rx="0.94" ry="0.94" transform="translate(88.78 -10.99) rotate(90)"/><path class="c" d="M86.15,38H71.08a1,1,0,0,0-.94.94V49.28a.94.94,0,0,0,.94.93H86.15a.94.94,0,0,0,.94-.93V38.89A1,1,0,0,0,86.15,38Zm-.6,10.72H71.68V39.5H85.55Z"/><rect class="e" x="71.68" y="39.5" width="13.87" height="9.18"/><rect class="c" x="48.94" y="26.37" width="1.88" height="35.44" rx="0.94" ry="0.94" transform="translate(93.97 -5.8) rotate(90)"/><rect class="c" x="48.94" y="31.56" width="1.88" height="35.44" rx="0.94" ry="0.94" transform="translate(99.16 -0.61) rotate(90)"/><rect class="f" x="33.7" y="24.55" width="51.81" height="9.32"/><path class="c" d="M79.55,84.06H49.08a2.36,2.36,0,0,0-2.35,2.35,2.35,2.35,0,0,0,2.35,2.35H79.55a2.35,2.35,0,1,0,0-4.7Zm0,3.16H49.08a.81.81,0,1,1,0-1.62H79.55a.81.81,0,0,1,0,1.62Z"/><path class="b" d="M80.36,86.41a.81.81,0,0,1-.81.81H49.08a.81.81,0,1,1,0-1.62H79.55A.81.81,0,0,1,80.36,86.41Z"/><polygon class="c" points="76.39 84.73 74.48 84.73 74.35 84.06 72.54 75.05 74.45 75.05 76.26 84.06 76.39 84.73"/><polygon class="b" points="74.35 84.06 72.38 84.06 70.57 75.05 72.54 75.05 74.35 84.06"/><polygon class="c" points="72.52 84.73 70.61 84.73 70.47 84.06 68.66 75.05 70.57 75.05 72.38 84.06 72.52 84.73"/><path class="c" d="M95.48,12.83H27.61a6.32,6.32,0,0,0-6.32,6.33V68.72a6.33,6.33,0,0,0,5.11,6.21,6.89,6.89,0,0,0,1.21.12H95.48a6.33,6.33,0,0,0,6.32-6.33V19.16A6.32,6.32,0,0,0,95.48,12.83Zm4.78,55.89a4.78,4.78,0,0,1-4.78,4.78H27.22l-.17,0H27l-.22,0h-.05l-.13,0h0l-.14,0c-.13,0-.26-.07-.38-.12l-.16-.06-.2-.09-.09,0-.09,0-.17-.09a4.28,4.28,0,0,1-.42-.26l-.12-.09h0l-.22-.17-.21-.19,0,0L24.1,72c-.07-.08-.14-.15-.2-.23a1.34,1.34,0,0,1-.11-.14l0,0-.12-.18-.09-.12-.11-.2-.17-.31-.07-.18-.06-.13s0-.1,0-.15S23,70.08,23,70a.27.27,0,0,1,0-.12,1.6,1.6,0,0,1,0-.21,1.42,1.42,0,0,1,0-.2l0-.23h0s0-.07,0-.11v0a.81.81,0,0,0,0-.15V19.16a4.79,4.79,0,0,1,4.78-4.79H95.48a4.79,4.79,0,0,1,4.78,4.79Z"/><path class="c" d="M97.09,18.33V69.54a2.61,2.61,0,0,1,0,.4s0,.1,0,.15v.06a1.42,1.42,0,0,1,0,.2,4.28,4.28,0,0,1-2.55,3.15h-4.2a5.29,5.29,0,0,0,5.29-5.29V19.66a5.29,5.29,0,0,0-5.29-5.29h2.87A4,4,0,0,1,97,17.31c0,.06,0,.13.05.19l0,.16s0,0,0,.06h0a1.1,1.1,0,0,1,0,.18,1.79,1.79,0,0,1,0,.23Z"/><path class="c" d="M97,17.5a4,4,0,0,0-3.88-3.13H90.26l2.87-.25a3.7,3.7,0,0,1,1.33.25A4.37,4.37,0,0,1,97,17.5Z"/><path class="c" d="M61.37,59.27a3.85,3.85,0,1,0,3.85,3.84A3.84,3.84,0,0,0,61.37,59.27Zm0,6.24a2.4,2.4,0,1,1,2.4-2.4A2.39,2.39,0,0,1,61.37,65.51Z"/><ellipse class="d" cx="17.26" cy="94.48" rx="14.5" ry="1.34"/><ellipse class="d" cx="38.17" cy="103.66" rx="10.82" ry="1.34"/><path class="c" d="M37.25,40.22H3.61A3.62,3.62,0,0,0,0,43.84V87.19A3.61,3.61,0,0,0,3.61,90.8H37.25a3.61,3.61,0,0,0,3.61-3.61V43.84A3.62,3.62,0,0,0,37.25,40.22ZM39.32,87.1a2.16,2.16,0,0,1-2.16,2.16H3.7A2.16,2.16,0,0,1,1.54,87.1V43.93A2.16,2.16,0,0,1,3.7,41.77H37.16a2.16,2.16,0,0,1,2.16,2.16Z"/><rect class="b" x="1.54" y="41.77" width="37.78" height="47.49" rx="2.16" ry="2.16"/><path class="a" d="M39.32,43.93V87.1a2.16,2.16,0,0,1-2.16,2.16h-.59a1.21,1.21,0,0,0,1.21-1.2V43a1.21,1.21,0,0,0-1.21-1.2h.59A2.16,2.16,0,0,1,39.32,43.93Z"/><path class="c" d="M37.78,43V88.06a1.21,1.21,0,0,1-1.21,1.2H34.26a2,2,0,0,0,2-2V43.75a2,2,0,0,0-2-2h2.31A1.21,1.21,0,0,1,37.78,43Z"/><path class="c" d="M32.45,44.36H5.67a1,1,0,0,0-1,1v38a1,1,0,0,0,1,1.05H32.45a1,1,0,0,0,1-1.05v-38A1,1,0,0,0,32.45,44.36ZM32,82.89H6.16v-37H32Z"/><rect class="a" x="6.16" y="45.9" width="25.8" height="36.99"/><path class="c" d="M30,47.74H8.17a.91.91,0,0,0-.91.91V57.2a.91.91,0,0,0,.91.91H30a.91.91,0,0,0,.91-.91V48.65A.91.91,0,0,0,30,47.74Zm-.63,8.83H8.8V49.28H29.32Z"/><rect class="f" x="8.8" y="49.28" width="20.52" height="7.29"/><path class="c" d="M30,59.69H19.34a.91.91,0,0,0-.91.91v7.66a.91.91,0,0,0,.91.91H30a.91.91,0,0,0,.91-.91V60.6A.91.91,0,0,0,30,59.69Zm-.63,7.94H20v-6.4h9.35Z"/><rect class="e" x="19.97" y="61.23" width="9.35" height="6.41"/><rect class="f" x="7.26" y="60.72" width="9.3" height="1.57" rx="0.79" ry="0.79"/><rect class="c" x="7.26" y="63.94" width="9.3" height="1.57" rx="0.79" ry="0.79"/><rect class="c" x="7.26" y="67.16" width="9.3" height="1.57" rx="0.79" ry="0.79"/><rect class="c" x="7.26" y="72.06" width="23.6" height="1.57" rx="0.79" ry="0.79"/><rect class="c" x="7.26" y="75.29" width="23.6" height="1.57" rx="0.79" ry="0.79"/><rect class="c" x="7.26" y="78.51" width="23.6" height="1.57" rx="0.79" ry="0.79"/><path class="g" d="M39.32,47.68V87.1a2.16,2.16,0,0,1-2.16,2.16H3.7A2.16,2.16,0,0,1,1.54,87.1V85.46Z"/><path class="c" d="M47.57,61.23H30.08a3.68,3.68,0,0,0-3.68,3.68V93.48a3.69,3.69,0,0,0,3.68,3.69H47.57a3.7,3.7,0,0,0,3.68-3.69V64.91A3.68,3.68,0,0,0,47.57,61.23Zm2.14,32.25a2.14,2.14,0,0,1-2.14,2.15H30.08a2.14,2.14,0,0,1-2.14-2.15V64.91a2.14,2.14,0,0,1,2.14-2.14H47.57a2.14,2.14,0,0,1,2.14,2.14Z"/><polygon class="g" points="70.47 84.06 51.25 84.06 51.25 75.05 68.66 75.05 70.47 84.06"/><path class="b" d="M47,64.91V93.49a2.14,2.14,0,0,1-2.14,2.14H30.08a2.14,2.14,0,0,1-2.14-2.15V64.91a2.14,2.14,0,0,1,2.14-2.14H44.89A2.14,2.14,0,0,1,47,64.91Z"/><path class="a" d="M49.71,64.91V93.48a2.14,2.14,0,0,1-2.14,2.15H47.2a1.37,1.37,0,0,0,1.37-1.38V64.14a1.37,1.37,0,0,0-1.37-1.37h.37A2.14,2.14,0,0,1,49.71,64.91Z"/><path class="c" d="M48.57,64.14V94.25a1.37,1.37,0,0,1-1.37,1.38H44.89A2.14,2.14,0,0,0,47,93.49V64.91a2.14,2.14,0,0,0-2.14-2.14H47.2A1.37,1.37,0,0,1,48.57,64.14Z"/><path class="c" d="M44.83,64.43H30a.88.88,0,0,0-.88.89V91a.88.88,0,0,0,.88.89H44.83a.88.88,0,0,0,.88-.89V65.32A.88.88,0,0,0,44.83,64.43Zm-.66,25.86H30.62V66H44.17Z"/><rect class="a" x="30.62" y="65.97" width="13.55" height="24.32"/><path class="c" d="M41.44,68H33.35a.94.94,0,0,0-.94.93v6.77a.94.94,0,0,0,.94.94h8.09a.94.94,0,0,0,.93-.94V68.88A.93.93,0,0,0,41.44,68Zm-.61,7.1H34V69.49h6.87Z"/><rect class="f" x="36.49" y="74.74" width="1.81" height="9.96" rx="0.9" ry="0.9" transform="translate(117.11 42.33) rotate(90)"/><rect class="c" x="36.49" y="77.86" width="1.81" height="9.96" rx="0.9" ry="0.9" transform="translate(120.23 45.44) rotate(90)"/><rect class="h" x="36.49" y="80.97" width="1.81" height="9.96" rx="0.9" ry="0.9" transform="translate(123.34 48.55) rotate(90)"/><rect class="f" x="33.96" y="69.49" width="6.88" height="5.56"/><path class="a" d="M100.26,19.16V68.72a4.78,4.78,0,0,1-4.78,4.78h-1A4.28,4.28,0,0,0,97,70.35a1.42,1.42,0,0,0,0-.2v-.06s0-.1,0-.15a2.61,2.61,0,0,0,0-.4V18.14a1.79,1.79,0,0,0,0-.23,1.1,1.1,0,0,0,0-.18h0s0,0,0-.06l0-.16c0-.06,0-.13-.05-.19a4.33,4.33,0,0,0-2.5-2.94h1A4.79,4.79,0,0,1,100.26,19.16Z"/><path class="g" d="M100.26,19.16V68.72a4.78,4.78,0,0,1-4.78,4.78h-1A4.28,4.28,0,0,0,97,70.35a1.42,1.42,0,0,0,0-.2v-.06s0-.1,0-.15a2.61,2.61,0,0,0,0-.4V18.14a1.79,1.79,0,0,0,0-.23,1.1,1.1,0,0,0,0-.18h0s0,0,0-.06l0-.16c0-.06,0-.13-.05-.19a4.33,4.33,0,0,0-2.5-2.94h1A4.79,4.79,0,0,1,100.26,19.16Z"/><path class="g" d="M49.71,67V93.48a2.14,2.14,0,0,1-2.14,2.15H30.08a2.14,2.14,0,0,1-2.14-2.15V88.73Z"/><path class="g" d="M97.09,18.33v36H49l.39-.39L85.15,18.16l3.79-3.79h4.19A4,4,0,0,1,97,17.31c0,.06,0,.13.05.19l0,.16s0,0,0,.06h0a1.1,1.1,0,0,1,0,.18,1.79,1.79,0,0,1,0,.23Z"/><path class="g" d="M97.09,41V69.54a2.61,2.61,0,0,1,0,.4s0,.1,0,.15v.06a1.42,1.42,0,0,1,0,.2,4.28,4.28,0,0,1-2.55,3.15H64.56Z"/></svg>