<svg xmlns="http://www.w3.org/2000/svg" viewBox="0 0 111.38 105" width="105"><defs><style>.a{fill:#7c9be4;}.b{fill:#5530b4;}.c{fill:#61139f;}.d{fill:#fff;}.e{fill:#f7d33f;}.f{fill:#5725a4;}.g{fill:#e0eff9;}.h{fill:#f75f35;}.i{fill:none;}.j{fill:#5530b3;}</style></defs><title>icon-background-gradient</title><path class="a" d="M105.83,46s10.89-5.89,2.17-29.77S82.74,1.12,79.07,3.64,48,17.08,39.46,17.42s2.18,9.06,2.18,9.06L71.37,44.86,87,48l14.23.7Z"/><path class="b" d="M103.23,39.75V84.49a4.15,4.15,0,0,1-3.59,4.1,4.13,4.13,0,0,0,1.88-3.46v-46a4.15,4.15,0,0,0-1.88-3.47A4.16,4.16,0,0,1,103.23,39.75Z"/><path class="c" d="M99.09,34.25H51.23a5.49,5.49,0,0,0-5.5,5.5V84.49a5.56,5.56,0,0,0,.81,2.89,5.63,5.63,0,0,0,2,1.89,5.45,5.45,0,0,0,2.73.72H99.09a5.5,5.5,0,0,0,5.5-5.5V39.75A5.5,5.5,0,0,0,99.09,34.25ZM47,39.75a4.2,4.2,0,0,1,1.7-3.41,4.15,4.15,0,0,1,.53-.32,2.87,2.87,0,0,1,.51-.21,3.5,3.5,0,0,1,1.17-.19h45.3a3,3,0,0,1,.52,0,4.07,4.07,0,0,1,3.39,4.09v1.93H47ZM96.75,88.59a4.38,4.38,0,0,1-.52,0H50.93a3.73,3.73,0,0,1-2.21-.73A4.19,4.19,0,0,1,47,84.49V43.25h53.12V84.49A4.08,4.08,0,0,1,96.75,88.59Zm6.48-4.1a4.15,4.15,0,0,1-2.68,3.87l-.35.11a4.88,4.88,0,0,1-.55.12h0a4.61,4.61,0,0,0,.6-.47,4.13,4.13,0,0,0,1.27-3v-46a4.11,4.11,0,0,0-1.87-3.46,4.14,4.14,0,0,1,3.59,4.09Z"/><path class="d" d="M47,43.25V84.49a4.18,4.18,0,0,0,1.7,3.41,3.69,3.69,0,0,0,1.38.63,3.85,3.85,0,0,0,.83.1h45.3a4.73,4.73,0,0,0,.53,0,4.08,4.08,0,0,0,3.39-4.1V43.25ZM96.7,67.07a1,1,0,0,1-1,1H51.45a1,1,0,0,1-1-1V50.78a1,1,0,0,1,1-1H95.71a1,1,0,0,1,1,1Z"/><path class="e" d="M96.75,35.65a4.41,4.41,0,0,0-.52,0H50.93a3.72,3.72,0,0,0-2.21.72A4.2,4.2,0,0,0,47,39.75v1.93h53.12V39.75A4.08,4.08,0,0,0,96.75,35.65Zm-44.93,4.7a1.45,1.45,0,1,1,1.45-1.45A1.44,1.44,0,0,1,51.82,40.35Zm4.62,0a1.45,1.45,0,1,1,1.45-1.45A1.45,1.45,0,0,1,56.44,40.35Zm4.62,0A1.45,1.45,0,1,1,62.5,38.9,1.45,1.45,0,0,1,61.06,40.35Z"/><circle class="f" cx="51.82" cy="38.9" r="1.45"/><circle class="f" cx="56.44" cy="38.9" r="1.45"/><circle class="f" cx="61.06" cy="38.9" r="1.45"/><path class="g" d="M100.15,43.25V84.49a4.08,4.08,0,0,1-3.39,4.1,4.73,4.73,0,0,1-.53,0H50.93a3.85,3.85,0,0,1-.83-.1L70.57,68.06,95.38,43.25Z"/><rect class="a" x="51.82" y="51.15" width="43.51" height="15.55"/><path class="c" d="M95.71,49.79H51.45a1,1,0,0,0-1,1V67.07a1,1,0,0,0,1,1H95.71a1,1,0,0,0,1-1V50.78A1,1,0,0,0,95.71,49.79ZM95.34,66.7H51.82V51.15H95.34Z"/><path class="b" d="M57.5,46.22V91a4.13,4.13,0,0,1-3.58,4.09,4.13,4.13,0,0,0,1.87-3.46v-46a4.14,4.14,0,0,0-1.87-3.46A4.13,4.13,0,0,1,57.5,46.22Z"/><path class="c" d="M53.36,40.71H5.5a5.51,5.51,0,0,0-2.73.73,5.63,5.63,0,0,0-2,1.89A5.56,5.56,0,0,0,0,46.22V91a5.56,5.56,0,0,0,.81,2.89,5.63,5.63,0,0,0,2,1.89,5.51,5.51,0,0,0,2.73.73H53.36A5.51,5.51,0,0,0,58.86,91V46.22A5.51,5.51,0,0,0,53.36,40.71ZM1.29,46.22A4.18,4.18,0,0,1,3,42.81a3.71,3.71,0,0,1,.54-.33,4.4,4.4,0,0,1,.5-.21,3.77,3.77,0,0,1,1.17-.19H50.5a3.15,3.15,0,0,1,.53,0,4.07,4.07,0,0,1,3.39,4.1v1.93H1.29ZM51,95.05a3.15,3.15,0,0,1-.53,0H5.2A3.78,3.78,0,0,1,3,94.36,4.18,4.18,0,0,1,1.29,91V49.71H54.42V91A4.07,4.07,0,0,1,51,95.05ZM57.5,91a4.14,4.14,0,0,1-2.67,3.87c-.12.05-.24.08-.36.12a4.86,4.86,0,0,1-.55.11h0a3.8,3.8,0,0,0,.59-.47,4.1,4.1,0,0,0,1.28-3v-46a4.14,4.14,0,0,0-1.87-3.46,4.13,4.13,0,0,1,3.58,4.1Z"/><path class="d" d="M1.29,49.72V91A4.22,4.22,0,0,0,3,94.37,4,4,0,0,0,4.37,95a3.84,3.84,0,0,0,.83.09H50.5a3.08,3.08,0,0,0,.53,0A4.07,4.07,0,0,0,54.42,91V49.72ZM51,73.54a1,1,0,0,1-1,1H5.73a1,1,0,0,1-1-1V57.24a1,1,0,0,1,1-1H50a1,1,0,0,1,1,1Z"/><path class="e" d="M51,42.12a3.15,3.15,0,0,0-.53,0H5.2A3.75,3.75,0,0,0,3,42.81a4.2,4.2,0,0,0-1.7,3.41v1.93H54.42V46.22A4.07,4.07,0,0,0,51,42.12ZM6.1,46.81a1.45,1.45,0,1,1,1.45-1.45A1.45,1.45,0,0,1,6.1,46.81Zm4.61,0a1.45,1.45,0,1,1,1.45-1.45A1.45,1.45,0,0,1,10.71,46.81Zm4.62,0a1.45,1.45,0,1,1,1.45-1.45A1.45,1.45,0,0,1,15.33,46.81Z"/><circle class="f" cx="6.1" cy="45.36" r="1.45"/><circle class="f" cx="10.71" cy="45.36" r="1.45"/><circle class="f" cx="15.33" cy="45.36" r="1.45"/><path class="g" d="M54.42,49.72V91A4.07,4.07,0,0,1,51,95.05a3.08,3.08,0,0,1-.53,0H5.2A3.84,3.84,0,0,1,4.37,95L24.85,74.53,49.66,49.72Z"/><rect class="a" x="6.1" y="57.61" width="43.51" height="15.55"/><path class="c" d="M50,56.25H5.72a1,1,0,0,0-1,1V73.53a1,1,0,0,0,1,1H50a1,1,0,0,0,1-1V57.24A1,1,0,0,0,50,56.25Zm-.37,16.91H6.1V57.61H49.61Z"/><rect class="h" x="28.44" y="37.73" width="50.14" height="10.05"/><path class="c" d="M79,36.16H28a1.14,1.14,0,0,0-1.14,1.14V48.21A1.15,1.15,0,0,0,28,49.36H79a1.15,1.15,0,0,0,1.14-1.15V37.3A1.14,1.14,0,0,0,79,36.16Zm-.43,11.62H28.44V37.73H78.58Z"/><path class="c" d="M35.27,51.33a.72.72,0,0,1-.72.72h-7a.72.72,0,1,1,0-1.43h7A.72.72,0,0,1,35.27,51.33Z"/><path class="c" d="M73.58,51.33a.7.7,0,0,1-.71.72h-7a.72.72,0,1,1,0-1.43h7A.71.71,0,0,1,73.58,51.33Z"/><rect class="f" x="26.87" y="57.41" width="15.05" height="12.99" rx="0.91" ry="0.91"/><rect class="a" x="29.48" y="57.95" width="9.85" height="11.91" transform="translate(98.3 29.5) rotate(90)"/><path class="c" d="M35.27,72.55a.9.9,0,0,1-.92.91H27.78a.91.91,0,1,1,0-1.82h6.57A.91.91,0,0,1,35.27,72.55Z"/><rect class="f" x="46.13" y="57.41" width="15.05" height="12.99" rx="0.91" ry="0.91"/><rect class="a" x="48.73" y="57.95" width="9.85" height="11.91" transform="translate(117.56 10.25) rotate(90)"/><path class="c" d="M54.52,72.55a.89.89,0,0,1-.91.91H47a.91.91,0,1,1,0-1.82h6.57A.91.91,0,0,1,54.52,72.55Z"/><rect class="c" x="65.38" y="57.41" width="15.05" height="12.99" rx="0.91" ry="0.91"/><rect class="a" x="67.99" y="57.95" width="9.85" height="11.91" transform="translate(136.81 -9.01) rotate(90)"/><path class="c" d="M73.78,72.55a.9.9,0,0,1-.92.91H66.3a.91.91,0,0,1-.92-.91.9.9,0,0,1,.92-.91h6.56A.91.91,0,0,1,73.78,72.55Z"/><path class="b" d="M87.67,24.6V76.15a4.77,4.77,0,0,1-4.13,4.72,4.76,4.76,0,0,0,2.16-4v-53a4.76,4.76,0,0,0-2.16-4A4.77,4.77,0,0,1,87.67,24.6Z"/><path class="c" d="M82.9,18.26H27.76a6.33,6.33,0,0,0-6.34,6.34V76.15a6.24,6.24,0,0,0,.94,3.32,6.31,6.31,0,0,0,5.4,3H82.9a6.33,6.33,0,0,0,6.34-6.33V24.6A6.34,6.34,0,0,0,82.9,18.26Zm-60,6.34a4.9,4.9,0,0,1,1.34-3.39,4.53,4.53,0,0,1,.62-.54l.28-.19a2.69,2.69,0,0,1,.29-.16,4.29,4.29,0,0,1,2-.49h52.2a4,4,0,0,1,.6.05,4.71,4.71,0,0,1,1.18.34,4.43,4.43,0,0,1,.7.41,4,4,0,0,1,.63.52,4.91,4.91,0,0,1,1.4,3.45v2.23H22.91Zm57.3,56.27a4,4,0,0,1-.6,0H27.41a4.36,4.36,0,0,1-2.54-.83,4.83,4.83,0,0,1-2-3.93V28.63H84.12V76.15A4.69,4.69,0,0,1,80.21,80.87Zm7.46-4.72a4.77,4.77,0,0,1-4.12,4.72h0a4.48,4.48,0,0,0,.68-.54,4.75,4.75,0,0,0,1.48-3.45v-53a4.72,4.72,0,0,0-1.48-3.45,4.4,4.4,0,0,0-.67-.54h0a5.12,5.12,0,0,1,1.25.34,4.83,4.83,0,0,1,.74.41,5.38,5.38,0,0,1,.66.52l.15.15a4.77,4.77,0,0,1,1.33,3.3Z"/><path class="d" d="M22.91,28.63V76.15a4.83,4.83,0,0,0,2,3.93,4.36,4.36,0,0,0,2.54.83h52.2a4,4,0,0,0,.6,0,4.69,4.69,0,0,0,3.91-4.72V28.63Zm4,8.67A1.14,1.14,0,0,1,28,36.16H79a1.14,1.14,0,0,1,1.14,1.14V48.21A1.15,1.15,0,0,1,79,49.36H28a1.15,1.15,0,0,1-1.14-1.15Zm.21,13.53a.72.72,0,0,1,.51-.21h7a.72.72,0,1,1,0,1.43h-7a.71.71,0,0,1-.51-1.22ZM35,73.2a1,1,0,0,1-.65.26H27.78a.91.91,0,1,1,0-1.82h6.57a.91.91,0,0,1,.92.91A1,1,0,0,1,35,73.2Zm6.93-3.72a.92.92,0,0,1-.92.92H27.78a.92.92,0,0,1-.91-.92V58.32a.91.91,0,0,1,.91-.91H41a.92.92,0,0,1,.92.91ZM54.26,73.2a1,1,0,0,1-.65.26H47a.91.91,0,1,1,0-1.82h6.57a.91.91,0,0,1,.91.91A1,1,0,0,1,54.26,73.2Zm6.92-3.72a.92.92,0,0,1-.91.92H47a.92.92,0,0,1-.91-.92V58.32a.91.91,0,0,1,.91-.91H60.27a.91.91,0,0,1,.91.91ZM65.4,50.83a.72.72,0,0,1,.51-.21h7a.71.71,0,0,1,.71.71.7.7,0,0,1-.71.72h-7a.71.71,0,0,1-.51-1.22ZM73.51,73.2a.91.91,0,0,1-.65.26H66.3a.91.91,0,0,1-.92-.91.9.9,0,0,1,.92-.91h6.56a.91.91,0,0,1,.65,1.56Zm6.93-3.72a.92.92,0,0,1-.92.92H66.3a.92.92,0,0,1-.92-.92V58.32a.92.92,0,0,1,.92-.91H79.52a.92.92,0,0,1,.92.91Z"/><path class="e" d="M80.21,19.88a4,4,0,0,0-.6,0H27.41a4.29,4.29,0,0,0-2.54.83,4.83,4.83,0,0,0-2,3.93v2.23H84.12V24.6A4.69,4.69,0,0,0,80.21,19.88Zm-51.77,5.4a1.67,1.67,0,1,1,1.67-1.66A1.66,1.66,0,0,1,28.44,25.28Zm5.32,0a1.67,1.67,0,1,1,1.67-1.66A1.66,1.66,0,0,1,33.76,25.28Zm5.32,0a1.67,1.67,0,1,1,1.67-1.66A1.66,1.66,0,0,1,39.08,25.28Z"/><circle class="f" cx="28.44" cy="23.62" r="1.67"/><circle class="f" cx="33.76" cy="23.62" r="1.67"/><circle class="f" cx="39.08" cy="23.62" r="1.67"/><path class="f" d="M72.66,38.12A17.16,17.16,0,0,1,55.51,55.28a17,17,0,0,1-1.75-.09,17,17,0,0,0,7.35-2.53,15.57,15.57,0,0,0,6.16-24.75,15.42,15.42,0,0,0-1.57-1.56V15.25a10.19,10.19,0,0,0-7-9.68,11.66,11.66,0,0,0-4.93-2,12.53,12.53,0,0,1,1.75-.13A11.77,11.77,0,0,1,67.27,15.25V25.64A17.08,17.08,0,0,1,72.66,38.12Z"/><path class="b" d="M54.87,35.24A2.87,2.87,0,0,1,52.69,38v4.32a.68.68,0,1,1-1.36,0V38a2.87,2.87,0,0,1-2.18-2.78,2.86,2.86,0,0,1,5.72,0Z"/><path class="f" d="M55.39,32.39a4.35,4.35,0,0,0-1.63-1.21A4.29,4.29,0,0,0,52,30.81a4.43,4.43,0,0,0-2.26,8.24v3.29a2.26,2.26,0,0,0,4.52,0V39.05a3.5,3.5,0,0,0,.55-.4,4.4,4.4,0,0,0,.57-6.26ZM54.27,37l-.13.15-.07.07-.13.13-.17.15h0l-.15.1h0l0,0h0l-.15.08-.07,0h0l-.13.06L52.9,38l-.21.06v4.32a.68.68,0,1,1-1.36,0V38a2.87,2.87,0,0,1-2.18-2.78A2.86,2.86,0,0,1,52,32.39h.29l.29,0s0,0,0,0h0l.13,0h0l.1,0,.1,0,.19.08.06,0,.15.08.18.11.05,0h0l.09.06,0,0h0a.39.39,0,0,1,.1.08,3.64,3.64,0,0,1,.34.34l.09.13a.6.6,0,0,1,.09.13,1.63,1.63,0,0,1,.11.17v0l0,.08a1.3,1.3,0,0,1,.08.17,1.12,1.12,0,0,1,0,.13.7.7,0,0,1,.06.19h0l0,.12,0,.14s0,.08,0,.12a.36.36,0,0,1,0,.11.49.49,0,0,1,0,.12c0,.06,0,.11,0,.17A2.87,2.87,0,0,1,54.27,37Z"/><path class="f" d="M63.78,25.64V15.25a11.8,11.8,0,0,0-10-11.64A12.53,12.53,0,0,0,52,3.48,11.77,11.77,0,0,0,40.24,15.25V25.64A17.16,17.16,0,0,0,52,55.28a17,17,0,0,0,1.75-.09h0a17.15,17.15,0,0,0,10-29.55Zm-22-10.39A10.18,10.18,0,0,1,52,5.06a10.08,10.08,0,0,1,1.75.15,10.18,10.18,0,0,1,8.44,10v9.08c-.34-.26-.7-.51-1.07-.74s-.76-.46-1.16-.67V16a7.9,7.9,0,0,0-3-6.21,8,8,0,0,0-5-1.75,8,8,0,0,0-8,8v6.9l-.31.17a16.12,16.12,0,0,0-1.92,1.24ZM58.4,16V22.2A17.27,17.27,0,0,0,52,21a17.25,17.25,0,0,0-2.89.24c-.53.09-1,.21-1.57.35a15.44,15.44,0,0,0-1.92.64V16a6.37,6.37,0,0,1,4.92-6.21A5.9,5.9,0,0,1,52,9.63a6.27,6.27,0,0,1,1.75.25A6.39,6.39,0,0,1,58.4,16ZM53.76,53.6a14.43,14.43,0,0,1-1.75.1A15.58,15.58,0,0,1,40.24,27.91a16.62,16.62,0,0,1,1.58-1.56,15,15,0,0,1,1.92-1.43l.31-.19a12.69,12.69,0,0,1,1.26-.67l.32-.15.76-.32A15.42,15.42,0,0,1,52,22.54a14.43,14.43,0,0,1,1.75.1,15.41,15.41,0,0,1,4.64,1.27,15.6,15.6,0,0,1,1.57.82,14.75,14.75,0,0,1,2.23,1.62A15.57,15.57,0,0,1,53.76,53.6Z"/><path class="g" d="M62.2,15.25v9.08c-.34-.26-.7-.51-1.07-.74s-.76-.46-1.16-.67V16a7.9,7.9,0,0,0-3-6.21,8,8,0,0,0-5-1.75,8,8,0,0,0-8,8v6.9l-.31.17a16.12,16.12,0,0,0-1.92,1.24V15.25A10.18,10.18,0,0,1,52,5.06a10.08,10.08,0,0,1,1.75.15,10.18,10.18,0,0,1,8.44,10Z"/><path class="d" d="M63.78,27.91a16.62,16.62,0,0,0-1.58-1.56A14.75,14.75,0,0,0,60,24.73a15.76,15.76,0,0,0-1.58-.82,15.35,15.35,0,0,0-4.63-1.27,14.43,14.43,0,0,0-1.75-.1,15.42,15.42,0,0,0-5.62,1.05l-.76.32-.32.14c-.43.21-.85.43-1.26.68l-.31.19a15,15,0,0,0-1.92,1.43,16.62,16.62,0,0,0-1.58,1.56A15.57,15.57,0,0,0,52,53.7a14.43,14.43,0,0,0,1.75-.1,15.58,15.58,0,0,0,10-25.69Zm-9,10.74a3.5,3.5,0,0,1-.55.4v3.29a2.26,2.26,0,0,1-4.52,0V39.05A4.43,4.43,0,0,1,52,30.81a4.29,4.29,0,0,1,1.75.37,4.35,4.35,0,0,1,1.63,1.21,4.4,4.4,0,0,1-.57,6.26Z"/><path class="g" d="M64,28.18l-7.6,7.6a4.34,4.34,0,0,1-1.58,2.87,3.5,3.5,0,0,1-.55.4v3.29a2.26,2.26,0,0,1-4.51.09l-7.69,7.68A15.46,15.46,0,0,0,52,53.7a14.43,14.43,0,0,0,1.75-.1A15.57,15.57,0,0,0,64,28.18Z"/><path class="i" d="M56.4,35.78a3.27,3.27,0,0,0,0-.54,4.42,4.42,0,0,0-1-2.85A4.47,4.47,0,0,0,52,30.81a4.43,4.43,0,0,0-2.25,8.24v3.38l-7.69,7.68a15.56,15.56,0,0,1-1.82-22.2,16.41,16.41,0,0,1,1.56-1.56,15.78,15.78,0,0,1,1.93-1.43l.31-.19c.41-.25.83-.47,1.26-.68l.32-.14c.24-.12.5-.22.75-.32A15.52,15.52,0,0,1,52,22.54a14.43,14.43,0,0,1,1.75.1,15.35,15.35,0,0,1,4.63,1.27,15.18,15.18,0,0,1,3.81,2.44,16.62,16.62,0,0,1,1.58,1.56l.22.27Z"/><path class="b" d="M71.09,38.12a15.59,15.59,0,0,1-10,14.54,17.16,17.16,0,0,0,2.67-27V15.25a11.74,11.74,0,0,0-5.09-9.68,10.19,10.19,0,0,1,7,9.68v11.1a15.51,15.51,0,0,1,5.39,11.77Z"/><path class="b" d="M50.55,9.8a7.93,7.93,0,0,0-3,6.22v5.54a15.44,15.44,0,0,0-1.92.64V16A6.39,6.39,0,0,1,50.55,9.8Z"/><ellipse class="j" cx="54.15" cy="103.38" rx="36.19" ry="1.62"/><line class="i" x1="56.4" y1="35.78" x2="49.76" y2="42.43"/></svg>